<?xml version="1.0" encoding="iso-8859-1"?>
<!-- Generator: Adobe Illustrator 30.2.1, SVG Export Plug-In . SVG Version: 9.03 Build 0)  -->
<svg version="1.1" id="salad" xmlns="http://www.w3.org/2000/svg" xmlns:xlink="http://www.w3.org/1999/xlink" x="0px" y="0px"
	 viewBox="0 0 80 80" style="enable-background:new 0 0 80 80;" xml:space="preserve">
<g id="plate">
	<path style="fill-rule:evenodd;clip-rule:evenodd;fill:#FFFFFF;" d="M17.999,16.073C31.207,3.928,51.782,4.791,63.928,17.999
		c12.144,13.208,11.281,33.783-1.926,45.928c-13.208,12.145-33.783,11.282-45.929-1.926C3.929,48.793,4.791,28.218,17.999,16.073z"
		/>
	<path style="fill-rule:evenodd;clip-rule:evenodd;fill:#D6DCDF;" d="M22.56,56.037c-8.852-9.627-8.223-24.624,1.403-33.476
		c9.627-8.853,24.624-8.224,33.476,1.403c8.852,9.626,8.224,24.624-1.403,33.477C46.41,66.292,31.412,65.663,22.56,56.037z
		 M55.035,56.35c9.026-8.299,9.616-22.36,1.315-31.385c-8.298-9.026-22.359-9.616-31.385-1.315
		c-9.025,8.298-9.615,22.36-1.315,31.385C31.948,64.062,46.009,64.651,55.035,56.35z"/>
</g>
<g id="right-knife">
	<path style="fill-rule:evenodd;clip-rule:evenodd;fill:#C8D9DC;" d="M67.786,46.872l0-14.176c-1.209,0-2.277,1.319-2.278,3.041
		l0,11.136l2.277,0L67.786,46.872z"/>
	<path style="fill-rule:evenodd;clip-rule:evenodd;fill:#C8D9DC;" d="M65.756,47.313l1.895,0c-0.284,0.428-0.379,0.872-0.049,1.436
		l-1.846,0C66.152,48.26,66.018,47.715,65.756,47.313z"/>
	<path style="fill-rule:evenodd;clip-rule:evenodd;fill:#9EC4CB;" d="M65.078,47.159l0-0.068c0-0.186,0.08-0.338,0.374-0.337
		l2.388,0c0.296,0,0.423,0.152,0.423,0.338l0,0.068c0,0.186-0.127,0.338-0.423,0.338l-2.388,0
		C65.157,47.497,65.078,47.345,65.078,47.159z"/>
	<path style="fill-rule:evenodd;clip-rule:evenodd;fill:#585880;" d="M64.978,62.55c-0.001-0.02-0.002-0.041-0.002-0.063
		l0.002-0.011l0.721-10.932l0.149-2.25l1.684,0l0.172,2.216l0.857,11.038l0.012,0.149C68.572,65.144,65.035,65.125,64.978,62.55z"/>
	<path style="fill-rule:evenodd;clip-rule:evenodd;fill:#9EC4CB;" d="M65.296,49.213l0-0.16c0-0.184,0.148-0.333,0.332-0.333
		l2.132,0c0.184,0,0.333,0.148,0.333,0.332l0,0.16c0,0.184-0.149,0.332-0.332,0.333l-2.132,0
		C65.446,49.546,65.297,49.397,65.296,49.213z"/>
</g>
<g id="left-fork">
	<path style="fill-rule:evenodd;clip-rule:evenodd;fill:#585880;" d="M10.952,62.554c0-0.01,0-0.02,0-0.03c0-0.01,0-0.022,0-0.034
		l0-0.012l0-0.004l0.72-10.928l0.149-2.249l1.684,0l0.172,2.216l0.852,10.99l0.004,0.049l0.011,0.149
		C14.546,65.149,11.008,65.129,10.952,62.554z"/>
	<path style="fill-rule:evenodd;clip-rule:evenodd;fill:#C8D9DC;" d="M11.782,47.419l0,1.362l1.762,0l0-1.362L11.782,47.419z"/>
	<path style="fill-rule:evenodd;clip-rule:evenodd;fill:#9EC4CB;" d="M11.272,49.218l0-0.16c0-0.184,0.149-0.332,0.333-0.332
		l2.132,0c0.182,0,0.333,0.149,0.332,0.333l0,0.16c0,0.184-0.149,0.333-0.333,0.332l-2.133,0
		C11.42,49.55,11.272,49.401,11.272,49.218z"/>
	<path style="fill-rule:evenodd;clip-rule:evenodd;fill:#C8D9DC;" d="M14.072,41.463c0.387-0.386,0.774-0.965,0.775-1.74l0-0.193
		l-0.581-6.256c-0.075-0.292-0.579-0.257-0.58,0l0.193,6.254c0,0.294-0.559,0.286-0.559,0l0-6.254c0-0.196-0.464-0.19-0.464,0
		l0,6.254c0.005,0.283-0.44,0.31-0.445,0.001l0-6.255c-0.015-0.227-0.482-0.188-0.464,0l0,6.254c0,0.338-0.534,0.303-0.534,0
		l0.193-6.254c0-0.222-0.541-0.281-0.58,0l-0.58,6.257l0,0.193c0.001,0.773,0.387,1.354,0.774,1.74
		c1.58,1.754,0.769,5.038,0.606,5.75l1.641,0C13.302,46.502,12.493,43.218,14.072,41.463z"/>
	<path style="fill-rule:evenodd;clip-rule:evenodd;fill:#9EC4CB;" d="M11.357,47.159l0-0.068c0-0.186,0.079-0.338,0.374-0.337
		l1.814,0c0.296,0,0.423,0.152,0.423,0.338l0,0.068c0,0.186-0.127,0.338-0.423,0.338l-1.814,0
		C11.436,47.497,11.357,47.345,11.357,47.159z"/>
</g>
<g id="vegetable">
	<path style="fill-rule:evenodd;clip-rule:evenodd;fill:#DDDACD;" d="M26.601,25.744c7.801-7.173,19.953-6.664,27.127,1.138
		c7.173,7.801,6.663,19.953-1.137,27.126c-7.801,7.173-19.953,6.664-27.127-1.138S18.8,32.917,26.601,25.744z"/>
	<path style="fill-rule:evenodd;clip-rule:evenodd;fill:#38B20A;" d="M24.932,56.855c-1.287-1.306,0.357-2.83-0.17-3.834
		c-0.94-1.794-3.75-0.904-4.32-2.031c-0.767-1.518,2.112-2.632,1.066-4.281c-0.578-0.912-1.687-0.539-1.996-1.263
		c-0.236-0.552,0.355-1.364,0.355-1.768c0-0.702-2.859,0.44-3.08-1.387c-0.215-1.776,3.632-0.698,3.525-2.342
		c-0.067-1.028-1.671-0.959-1.665-1.769c0.006-0.945,2.078-0.804,1.976-2.035c-0.08-0.949-2.884-2.448-2.365-3.868
		c0.507-1.388,3.583-0.064,4.207-1.398c0.455-0.972-0.966-1.507-0.317-2.337c0.489-0.627,1.355,0.291,1.917-0.392
		c0.74-0.901-0.25-1.709,0.689-2.538c0.399-0.42,1.364-0.128,2.103,0.29c0.54,0.404,0.582,0.81,0.189,1.215
		c-6.704,6.875-6.934,17.885-0.357,25.038c0.64,0.696,1.322,1.332,2.039,1.905c1.107,1.058,1.029,1.528,0.525,2.113
		C28.301,57.28,26.218,58.161,24.932,56.855z"/>
	<path style="fill-rule:evenodd;clip-rule:evenodd;fill:#46BB00;" d="M30.217,36.167c-0.225-0.335,0.326-0.806,0.209-1.193
		c-0.099-0.334-0.108-0.569-0.718-0.763c-0.644-0.203-2.075-0.083-2.079-1.035c-0.001-0.387,0.85-0.24,1.1-0.394
		c0.26-0.159,0.216-0.524-0.154-0.84c-0.776-0.664-2.3-0.589-2.135-1.429c0.038-0.202,0.401-0.153,0.599-0.126
		c0.267,0.037,0.265-0.349-0.057-0.553c-0.582-0.367-1.463-0.525-1.229-1.172c0.103-0.286,0.644-0.085,0.915,0.001
		c0.355,0.112,0.369-0.267,0.283-0.407c-0.299-0.488-1.241-0.811-1.313-1.46c-0.038-0.354,0.301-0.326,0.328-0.57
		c0.042-0.394-0.871-1.293-0.173-1.7l0.005-0.003c0.703-0.398,1.02,0.842,1.382,1.004c0.225,0.099,0.371-0.209,0.658,0.003
		c0.525,0.388,0.331,1.364,0.604,1.868c0.078,0.145,0.412,0.324,0.495-0.04c0.063-0.277,0.159-0.846,0.459-0.792
		c0.677,0.125,0.37,0.965,0.394,1.652c0.014,0.381,0.348,0.578,0.448,0.327c0.077-0.186,0.218-0.521,0.41-0.455
		c0.811,0.281-0.019,1.559,0.163,2.564c0.087,0.479,0.378,0.7,0.648,0.555c0.258-0.137,0.56-0.949,0.893-0.752
		c0.821,0.483-0.001,1.659-0.15,2.319c-0.14,0.624,0.06,0.749,0.298,1.003c0.276,0.294,0.96,0.055,1.137,0.419
		c0.316,0.651-0.429,1.296-0.741,2.016l-0.564,0.324C31.554,36.448,30.621,36.768,30.217,36.167z"/>
	<path style="fill-rule:evenodd;clip-rule:evenodd;fill:#3A800F;" d="M41.918,15.531c0.641-0.098,0.519,0.918,0.743,1.143
		c0.137,0.139,0.335-0.048,0.487,0.191c0.279,0.439-0.145,1.108-0.089,1.56c0.017,0.131,0.213,0.358,0.378,0.113
		c0.126-0.189,0.362-0.583,0.568-0.457c0.468,0.288-0.001,0.823-0.18,1.34c-0.1,0.286,0.091,0.529,0.239,0.372
		c0.111-0.117,0.311-0.325,0.434-0.22c0.52,0.442-0.464,1.152-0.617,1.95c-0.072,0.38,0.081,0.628,0.322,0.598
		c0.233-0.028,0.687-0.544,0.879-0.303c0.47,0.593-0.477,1.23-0.777,1.678c-0.283,0.424-0.171,0.573-0.067,0.829
		c0.121,0.298,0.698,0.317,0.723,0.637c0.057,0.69-1.021,0.933-1.347,1.579C42.597,22.943,41.913,19.29,41.918,15.531z"/>
	<path style="fill-rule:evenodd;clip-rule:evenodd;fill:#4CA914;" d="M41.859,25.442c-0.071-0.313,0.474-0.505,0.499-0.826
		c0.022-0.276,0.083-0.453-0.313-0.772c-0.42-0.336-1.514-0.659-1.245-1.366c0.11-0.286,0.699,0.067,0.929,0.024
		c0.24-0.045,0.311-0.327,0.127-0.668c-0.385-0.715-1.538-1.098-1.174-1.674c0.087-0.139,0.34,0.001,0.48,0.078
		c0.188,0.105,0.297-0.184,0.117-0.427c-0.326-0.439-0.935-0.81-0.576-1.224c0.158-0.184,0.501,0.122,0.678,0.264
		c0.231,0.185,0.349-0.092,0.326-0.221c-0.082-0.448-0.687-0.958-0.555-1.461c0.073-0.273,0.317-0.155,0.407-0.329
		c0.145-0.28-0.277-1.213,0.365-1.312l1.697,11.011C43.114,26.025,42.012,26.117,41.859,25.442z"/>
	<path style="fill-rule:evenodd;clip-rule:evenodd;fill:#2E650C;" d="M43.96,28.776c-0.083,0.013-0.161-0.045-0.173-0.127
		l-1.62-10.512c-0.013-0.082,0.044-0.16,0.127-0.173c0.082-0.013,0.161,0.045,0.173,0.127l1.619,10.513
		C44.1,28.685,44.042,28.762,43.96,28.776z"/>
	<path style="fill-rule:evenodd;clip-rule:evenodd;fill:#429111;" d="M38.37,15.594c0.605-0.234,0.704,0.786,0.97,0.957
		c0.165,0.105,0.317-0.119,0.516,0.082c0.366,0.37,0.095,1.113,0.248,1.542c0.045,0.123,0.285,0.304,0.393,0.028
		c0.083-0.211,0.229-0.647,0.457-0.567c0.518,0.18,0.175,0.804,0.11,1.348c-0.036,0.302,0.203,0.497,0.313,0.312
		c0.083-0.136,0.234-0.384,0.378-0.308c0.602,0.32-0.206,1.224-0.184,2.038c0.012,0.387,0.212,0.597,0.442,0.515
		c0.221-0.077,0.556-0.678,0.794-0.484c0.587,0.479-0.203,1.305-0.399,1.805c-0.186,0.474-0.044,0.596,0.112,0.825
		c0.182,0.264,0.749,0.159,0.844,0.467c0.203,0.661-0.798,1.13-0.978,1.831C40.623,22.686,39.17,19.266,38.37,15.594z"/>
	<path style="fill-rule:evenodd;clip-rule:evenodd;fill:#54B11B;" d="M40.436,25.286c-0.136-0.29,0.353-0.595,0.309-0.913
		c-0.038-0.275-0.015-0.461-0.471-0.687c-0.483-0.237-1.621-0.318-1.509-1.067c0.046-0.304,0.698-0.085,0.913-0.176
		c0.224-0.094,0.233-0.385-0.019-0.679c-0.531-0.616-1.737-0.742-1.507-1.384c0.055-0.154,0.334-0.071,0.487-0.026
		c0.207,0.063,0.251-0.243,0.023-0.442c-0.412-0.359-1.088-0.591-0.825-1.071c0.116-0.212,0.516,0.012,0.719,0.113
		c0.266,0.131,0.322-0.164,0.272-0.286c-0.176-0.42-0.877-0.788-0.854-1.307c0.013-0.282,0.276-0.22,0.328-0.408
		c0.081-0.306-0.531-1.126,0.075-1.36l4.017,10.391C41.786,25.585,40.73,25.913,40.436,25.286z"/>
	<path style="fill-rule:evenodd;clip-rule:evenodd;fill:#326F0D;" d="M43.007,28.004l-3.835-9.921
		c-0.031-0.077,0.008-0.166,0.086-0.196c0.078-0.03,0.167,0.009,0.196,0.087l3.835,9.921c0.029,0.078-0.009,0.167-0.087,0.196
		C43.125,28.122,43.037,28.083,43.007,28.004z"/>
	<path style="fill-rule:evenodd;clip-rule:evenodd;fill:#3A800F;" d="M48.225,16.942c0.633,0.14,0.153,1.044,0.28,1.334
		c0.08,0.178,0.33,0.077,0.385,0.354c0.101,0.51-0.536,0.98-0.645,1.423c-0.032,0.127,0.069,0.411,0.312,0.241
		c0.185-0.13,0.547-0.413,0.694-0.222c0.333,0.437-0.298,0.766-0.651,1.185c-0.196,0.231-0.105,0.526,0.089,0.434
		c0.144-0.068,0.406-0.191,0.486-0.049c0.325,0.6-0.848,0.907-1.278,1.597c-0.204,0.329-0.152,0.615,0.085,0.674
		c0.226,0.058,0.838-0.259,0.929,0.035c0.225,0.723-0.889,0.974-1.33,1.284c-0.417,0.293-0.366,0.472-0.362,0.75
		c0.005,0.321,0.536,0.547,0.446,0.855c-0.197,0.664-1.288,0.502-1.827,0.987C46.187,24.1,46.865,20.446,48.225,16.942z"/>
	<path style="fill-rule:evenodd;clip-rule:evenodd;fill:#4CA914;" d="M44.596,26.165c0.048-0.317,0.624-0.301,0.762-0.589
		c0.119-0.25,0.242-0.393-0.014-0.833c-0.27-0.465-1.175-1.161-0.669-1.723c0.206-0.227,0.628,0.315,0.858,0.358
		c0.239,0.045,0.407-0.193,0.358-0.578c-0.102-0.806-1.038-1.578-0.492-1.985c0.131-0.098,0.317,0.125,0.42,0.248
		c0.136,0.166,0.343-0.064,0.262-0.357c-0.147-0.528-0.581-1.093-0.095-1.348c0.213-0.113,0.424,0.295,0.538,0.492
		c0.149,0.256,0.36,0.04,0.384-0.089c0.085-0.448-0.297-1.141,0.01-1.562c0.167-0.229,0.352-0.031,0.498-0.16
		c0.236-0.209,0.179-1.233,0.813-1.093l-2.388,10.883C45.556,27.16,44.496,26.849,44.596,26.165z"/>
	<path style="fill-rule:evenodd;clip-rule:evenodd;fill:#2E650C;" d="M45.354,30.032c-0.082-0.018-0.134-0.099-0.116-0.181
		l2.28-10.388c0.018-0.082,0.099-0.134,0.181-0.116c0.082,0.018,0.134,0.099,0.116,0.181l-2.28,10.388
		C45.519,29.999,45.436,30.05,45.354,30.032z"/>
	<path style="fill-rule:evenodd;clip-rule:evenodd;fill:#429111;" d="M44.893,15.721c0.649,0,0.372,0.986,0.559,1.243
		c0.116,0.158,0.339,0.004,0.452,0.263c0.208,0.476-0.312,1.072-0.326,1.528c-0.004,0.131,0.157,0.386,0.357,0.168
		c0.153-0.167,0.446-0.521,0.631-0.365c0.418,0.354-0.127,0.813-0.383,1.297c-0.141,0.268,0.01,0.537,0.18,0.405
		c0.127-0.098,0.357-0.274,0.464-0.152c0.447,0.516-0.633,1.068-0.906,1.835c-0.13,0.365-0.017,0.633,0.227,0.641
		c0.234,0.008,0.762-0.433,0.915-0.164c0.375,0.659-0.659,1.143-1.024,1.539c-0.344,0.375-0.256,0.539-0.193,0.81
		c0.073,0.313,0.641,0.419,0.618,0.74c-0.049,0.691-1.151,0.767-1.572,1.356C44.437,23.149,44.315,19.434,44.893,15.721z"/>
	<path style="fill-rule:evenodd;clip-rule:evenodd;fill:#54B11B;" d="M43.324,25.506c-0.022-0.321,0.545-0.428,0.618-0.74
		c0.064-0.27,0.152-0.435-0.193-0.811c-0.365-0.396-1.398-0.881-1.024-1.54c0.152-0.267,0.682,0.172,0.915,0.166
		c0.243-0.008,0.356-0.275,0.227-0.641c-0.272-0.765-1.353-1.319-0.907-1.833c0.107-0.123,0.337,0.054,0.464,0.152
		c0.17,0.132,0.323-0.136,0.18-0.405c-0.256-0.484-0.802-0.942-0.383-1.297c0.184-0.157,0.478,0.198,0.631,0.365
		c0.2,0.218,0.36-0.037,0.357-0.168c-0.013-0.456-0.534-1.052-0.326-1.528c0.114-0.259,0.337-0.105,0.452-0.263
		c0.186-0.256-0.09-1.242,0.56-1.242v11.141C44.475,26.273,43.373,26.197,43.324,25.506z"/>
	<path style="fill-rule:evenodd;clip-rule:evenodd;fill:#326F0D;" d="M44.743,28.969V18.333c0-0.083,0.067-0.153,0.152-0.153
		c0.083,0,0.152,0.069,0.152,0.153v10.636c0,0.083-0.068,0.153-0.152,0.153S44.743,29.052,44.743,28.969z"/>
	<path style="fill-rule:evenodd;clip-rule:evenodd;fill:#004D09;" d="M42.905,25.451l-0.37-0.666c-3.67,1.943-6.21-0.272-7.37-2.362
		c-1.833-3.305-3.176-9.198-0.272-11.416l-0.373-0.672c-3.389,2.487-1.982,9.031,0.037,12.674
		C35.833,25.308,38.683,27.721,42.905,25.451z"/>
	<path style="fill-rule:evenodd;clip-rule:evenodd;fill:#5AA40F;" d="M42.655,25l-0.751-1.356c-2.876,1.492-4.937-0.375-5.9-2.111
		c-1.522-2.746-2.707-7.595-0.477-9.387l-0.755-1.361c-3.034,2.267-1.647,8.375,0.249,11.796C36.22,24.745,38.852,27.035,42.655,25z
		"/>
	<path style="fill-rule:evenodd;clip-rule:evenodd;fill:#E3DA83;" d="M42.036,23.886l-0.967-1.742
		c-0.104-0.187-0.243-0.236-0.446-0.145c-1.351,0.506-2.307-0.375-2.69-1.064c-0.573-1.034-0.854-2.648-0.094-3.635
		c0.215-0.231,0.324-0.395,0.113-0.774l-2.564-4.623c-2.378,1.84-1.139,6.932,0.457,9.811
		C36.853,23.529,39.017,25.483,42.036,23.886z"/>
	<path style="fill-rule:evenodd;clip-rule:evenodd;fill:#00590A;" d="M41.387,25.977l-0.529-0.548
		c-3.044,2.821-6.071,1.335-7.729-0.385c-2.623-2.722-5.438-8.07-3.204-10.96l-0.533-0.553c-2.633,3.277,0.411,9.237,3.301,12.236
		C34.519,27.663,37.895,29.259,41.387,25.977z"/>
	<path style="fill-rule:evenodd;clip-rule:evenodd;fill:#64B312;" d="M41.03,25.608l-1.076-1.116
		c-2.395,2.181-4.866,0.909-6.244-0.52c-2.179-2.261-4.572-6.641-2.879-8.947l-1.08-1.121c-2.348,2.972,0.566,8.516,3.28,11.333
		C34.747,27.019,37.88,28.553,41.03,25.608z"/>
	<path style="fill-rule:evenodd;clip-rule:evenodd;fill:#EBE286;" d="M40.146,24.689l-1.383-1.434
		c-0.149-0.154-0.294-0.166-0.469-0.026c-1.174,0.837-2.325,0.232-2.872-0.336c-0.819-0.851-1.508-2.338-1.028-3.487
		c0.149-0.279,0.211-0.466-0.09-0.777l-3.669-3.807c-1.823,2.391,0.685,6.992,2.969,9.361C35.045,25.681,37.64,27.011,40.146,24.689
		z"/>
	<path style="fill-rule:evenodd;clip-rule:evenodd;fill:#006F0C;" d="M40.095,26.001l-0.678-0.348
		c-1.965,3.657-5.309,3.233-7.438,2.143c-3.363-1.724-7.76-5.872-6.585-9.328l-0.683-0.351c-1.43,3.953,3.384,8.605,7.09,10.505
		C34.144,29.822,37.855,30.236,40.095,26.001z"/>
	<path style="fill-rule:evenodd;clip-rule:evenodd;fill:#6DC217;" d="M39.638,25.766l-1.38-0.706
		c-1.557,2.84-4.309,2.438-6.076,1.533c-2.795-1.433-6.478-4.799-5.624-7.53l-1.386-0.71c-1.256,3.573,3.297,7.873,6.777,9.658
		C34.15,29.137,37.613,29.574,39.638,25.766z"/>
	<path style="fill-rule:evenodd;clip-rule:evenodd;fill:#F1EA99;" d="M38.504,25.184l-1.774-0.909
		c-0.19-0.097-0.333-0.06-0.451,0.128c-0.84,1.172-2.125,0.973-2.826,0.614c-1.052-0.539-2.184-1.723-2.103-2.965
		c0.05-0.312,0.049-0.51-0.337-0.706l-4.707-2.412c-0.951,2.853,2.915,6.391,5.844,7.892C34,27.775,36.885,28.194,38.504,25.184z"/>
	<path style="fill-rule:evenodd;clip-rule:evenodd;fill:#38B20A;" d="M54.324,22.508c1.286,1.338-0.357,2.9,0.17,3.929
		c0.942,1.839,3.75,0.927,4.32,2.081c0.768,1.555-2.112,2.696-1.066,4.386c0.578,0.933,1.687,0.552,1.996,1.294
		c0.236,0.566-0.355,1.397-0.355,1.812c0,0.719,2.861-0.452,3.08,1.42c0.215,1.821-3.632,0.715-3.525,2.4
		c0.067,1.054,1.671,0.983,1.665,1.813c-0.006,0.968-2.078,0.823-1.974,2.085c0.08,0.972,2.884,2.509,2.365,3.964
		c-0.507,1.421-3.581,0.065-4.206,1.433c-0.455,0.996,0.966,1.545,0.317,2.395c-0.489,0.642-1.355-0.299-1.917,0.401
		c-0.74,0.923,0.25,1.751-0.689,2.601c-0.398,0.43-1.363,0.132-2.103-0.298c-0.54-0.415-0.582-0.829-0.189-1.245
		c6.704-7.046,6.934-18.328,0.357-25.66c-0.64-0.714-1.322-1.365-2.039-1.953c-1.107-1.084-1.029-1.565-0.525-2.166
		C50.955,22.073,53.038,21.17,54.324,22.508z"/>
	<path style="fill-rule:evenodd;clip-rule:evenodd;fill:#3A800F;" d="M35.852,63.986c-0.659,0.102-0.533-0.944-0.763-1.175
		c-0.141-0.143-0.344,0.049-0.5-0.196c-0.286-0.452,0.15-1.139,0.091-1.604c-0.017-0.134-0.218-0.368-0.388-0.116
		c-0.13,0.194-0.371,0.6-0.583,0.47c-0.482-0.297,0.001-0.846,0.185-1.379c0.103-0.294-0.094-0.543-0.247-0.383
		c-0.113,0.119-0.319,0.334-0.447,0.226c-0.534-0.454,0.477-1.184,0.633-2.006c0.075-0.39-0.083-0.646-0.331-0.615
		c-0.239,0.028-0.707,0.559-0.903,0.311c-0.483-0.61,0.491-1.265,0.799-1.724c0.292-0.435,0.176-0.589,0.069-0.853
		c-0.123-0.307-0.717-0.326-0.744-0.655c-0.058-0.709,1.05-0.959,1.385-1.624C35.153,56.366,35.857,60.121,35.852,63.986z"/>
	<path style="fill-rule:evenodd;clip-rule:evenodd;fill:#4CA914;" d="M35.914,53.797c0.072,0.322-0.487,0.52-0.513,0.849
		c-0.022,0.285-0.086,0.466,0.322,0.793c0.432,0.345,1.558,0.677,1.279,1.405c-0.113,0.295-0.718-0.068-0.954-0.024
		c-0.247,0.045-0.319,0.336-0.131,0.686c0.397,0.736,1.581,1.129,1.207,1.722c-0.089,0.141-0.351-0.001-0.495-0.081
		c-0.193-0.108-0.306,0.189-0.119,0.439c0.335,0.452,0.961,0.832,0.591,1.257c-0.162,0.188-0.515-0.126-0.698-0.272
		c-0.238-0.19-0.36,0.095-0.336,0.227c0.085,0.461,0.708,0.985,0.57,1.502c-0.074,0.281-0.326,0.159-0.417,0.339
		c-0.149,0.289,0.285,1.248-0.374,1.349l-1.744-11.321C34.623,53.199,35.756,53.104,35.914,53.797z"/>
	<path style="fill-rule:evenodd;clip-rule:evenodd;fill:#2E650C;" d="M33.752,50.37c0.085-0.014,0.166,0.046,0.179,0.13
		l1.665,10.808c0.013,0.085-0.045,0.166-0.131,0.178c-0.085,0.013-0.164-0.046-0.177-0.131l-1.665-10.807
		C33.608,50.464,33.667,50.383,33.752,50.37z"/>
	<path style="fill-rule:evenodd;clip-rule:evenodd;fill:#429111;" d="M39.5,63.922c-0.622,0.24-0.723-0.808-0.997-0.984
		c-0.17-0.109-0.326,0.122-0.531-0.085c-0.378-0.38-0.099-1.144-0.254-1.586c-0.046-0.127-0.293-0.312-0.405-0.029
		c-0.085,0.217-0.235,0.665-0.47,0.583c-0.532-0.185-0.18-0.827-0.114-1.385c0.036-0.309-0.208-0.511-0.322-0.321
		c-0.085,0.14-0.24,0.396-0.388,0.317c-0.619-0.329,0.212-1.258,0.189-2.094c-0.012-0.398-0.218-0.612-0.455-0.53
		c-0.226,0.08-0.57,0.697-0.816,0.498c-0.604-0.493,0.208-1.34,0.411-1.857c0.19-0.487,0.045-0.612-0.116-0.849
		c-0.186-0.272-0.77-0.164-0.867-0.48c-0.209-0.679,0.82-1.162,1.005-1.882C37.184,56.631,38.678,60.147,39.5,63.922z"/>
	<path style="fill-rule:evenodd;clip-rule:evenodd;fill:#54B11B;" d="M37.376,53.957c0.14,0.299-0.364,0.611-0.319,0.938
		c0.039,0.283,0.017,0.474,0.486,0.706c0.496,0.245,1.667,0.327,1.552,1.097c-0.048,0.313-0.718,0.087-0.939,0.181
		c-0.23,0.096-0.239,0.397,0.019,0.699c0.546,0.633,1.786,0.763,1.549,1.423c-0.056,0.158-0.343,0.073-0.501,0.027
		c-0.212-0.064-0.258,0.25-0.023,0.454c0.425,0.37,1.119,0.607,0.848,1.102c-0.118,0.218-0.53-0.013-0.74-0.115
		c-0.274-0.135-0.331,0.168-0.28,0.294c0.181,0.433,0.902,0.81,0.879,1.344c-0.013,0.29-0.284,0.226-0.335,0.42
		c-0.083,0.315,0.546,1.157-0.076,1.398l-4.13-10.684C35.988,53.649,37.074,53.313,37.376,53.957z"/>
	<path style="fill-rule:evenodd;clip-rule:evenodd;fill:#326F0D;" d="M34.732,51.162l3.942,10.2
		c0.031,0.081-0.009,0.171-0.089,0.203c-0.08,0.031-0.171-0.009-0.202-0.09l-3.942-10.198c-0.031-0.081,0.009-0.171,0.089-0.203
		C34.611,51.042,34.703,51.081,34.732,51.162z"/>
	<path style="fill-rule:evenodd;clip-rule:evenodd;fill:#3A800F;" d="M29.369,62.537c-0.651-0.144-0.157-1.073-0.288-1.371
		c-0.081-0.184-0.339-0.078-0.396-0.363c-0.104-0.525,0.55-1.008,0.663-1.463c0.033-0.131-0.072-0.422-0.32-0.249
		c-0.19,0.135-0.563,0.425-0.713,0.229c-0.343-0.449,0.306-0.788,0.669-1.218c0.202-0.238,0.108-0.541-0.091-0.445
		c-0.149,0.071-0.417,0.196-0.498,0.05c-0.335-0.616,0.871-0.932,1.314-1.642c0.211-0.338,0.155-0.632-0.087-0.693
		c-0.233-0.059-0.861,0.267-0.956-0.036c-0.231-0.743,0.913-1.003,1.367-1.32c0.428-0.3,0.376-0.487,0.372-0.77
		c-0.005-0.33-0.551-0.562-0.459-0.88c0.202-0.683,1.324-0.516,1.878-1.014C31.464,55.177,30.768,58.934,29.369,62.537z"/>
	<path style="fill-rule:evenodd;clip-rule:evenodd;fill:#4CA914;" d="M33.099,53.055c-0.047,0.326-0.641,0.309-0.784,0.606
		c-0.123,0.257-0.248,0.403,0.015,0.855c0.279,0.479,1.209,1.194,0.688,1.772c-0.212,0.235-0.646-0.324-0.882-0.367
		c-0.247-0.046-0.419,0.198-0.369,0.593c0.105,0.828,1.067,1.623,0.506,2.042c-0.135,0.1-0.326-0.128-0.432-0.254
		c-0.141-0.169-0.353,0.067-0.27,0.367c0.15,0.542,0.596,1.124,0.098,1.387c-0.22,0.117-0.435-0.304-0.552-0.505
		c-0.154-0.263-0.37-0.041-0.394,0.091c-0.087,0.46,0.304,1.174-0.01,1.606c-0.171,0.235-0.361,0.032-0.512,0.166
		c-0.243,0.216-0.184,1.266-0.835,1.124l2.455-11.188C32.111,52.03,33.202,52.35,33.099,53.055z"/>
	<path style="fill-rule:evenodd;clip-rule:evenodd;fill:#2E650C;" d="M32.32,49.078c0.085,0.018,0.138,0.103,0.12,0.186
		l-2.344,10.681c-0.018,0.083-0.101,0.137-0.186,0.119c-0.083-0.019-0.137-0.103-0.118-0.186l2.344-10.681
		C32.151,49.113,32.235,49.06,32.32,49.078z"/>
	<path style="fill-rule:evenodd;clip-rule:evenodd;fill:#429111;" d="M32.794,63.791c-0.667,0-0.384-1.014-0.576-1.278
		c-0.119-0.162-0.349-0.004-0.465-0.27c-0.214-0.49,0.321-1.103,0.334-1.572c0.004-0.135-0.161-0.397-0.367-0.173
		c-0.158,0.172-0.459,0.535-0.647,0.375c-0.43-0.365,0.131-0.836,0.393-1.334c0.145-0.276-0.01-0.552-0.185-0.416
		c-0.13,0.1-0.367,0.281-0.477,0.155c-0.459-0.53,0.651-1.098,0.931-1.885c0.134-0.376,0.018-0.651-0.233-0.659
		c-0.24-0.008-0.784,0.444-0.94,0.169c-0.385-0.677,0.677-1.175,1.052-1.583c0.353-0.385,0.263-0.555,0.198-0.832
		c-0.076-0.321-0.659-0.431-0.636-0.76c0.049-0.71,1.183-0.788,1.616-1.394C33.264,56.155,33.388,59.974,32.794,63.791z"/>
	<path style="fill-rule:evenodd;clip-rule:evenodd;fill:#54B11B;" d="M34.406,53.731c0.023,0.329-0.56,0.439-0.635,0.76
		c-0.066,0.277-0.157,0.447,0.198,0.833c0.375,0.407,1.437,0.905,1.052,1.583c-0.157,0.275-0.7-0.177-0.94-0.169
		c-0.249,0.008-0.366,0.282-0.233,0.659c0.28,0.787,1.39,1.356,0.931,1.885c-0.109,0.127-0.347-0.055-0.475-0.155
		c-0.175-0.136-0.33,0.14-0.185,0.416c0.263,0.497,0.823,0.969,0.394,1.334c-0.19,0.16-0.492-0.204-0.649-0.375
		c-0.207-0.223-0.371,0.039-0.367,0.173c0.014,0.469,0.55,1.081,0.335,1.571c-0.117,0.267-0.346,0.108-0.464,0.271
		c-0.191,0.262,0.091,1.276-0.575,1.276V52.339C33.222,52.943,34.355,53.021,34.406,53.731z"/>
	<path style="fill-rule:evenodd;clip-rule:evenodd;fill:#326F0D;" d="M32.948,50.171v10.934c0,0.086-0.069,0.157-0.155,0.157
		s-0.157-0.071-0.157-0.157V50.171c0-0.086,0.069-0.157,0.157-0.157C32.878,50.014,32.948,50.085,32.948,50.171z"/>
	<path style="fill-rule:evenodd;clip-rule:evenodd;fill:#850317;" d="M40.951,54.653c0.123,0.597-0.43,1.162-0.572,1.75
		c-0.154,0.637,0.027,1.479-0.418,1.982c-0.629,0.713-1.938,0.25-2.385-0.865c-0.446-1.114-0.045-2.62,0.894-3.364
		C39.409,53.415,40.741,53.63,40.951,54.653z"/>
	<path style="fill-rule:evenodd;clip-rule:evenodd;fill:#F1A84A;" d="M40.239,56.009c0.103-0.06,0.212-0.075,0.31-0.049
		c-0.071,0.146-0.134,0.295-0.169,0.444c-0.045,0.184-0.062,0.383-0.073,0.588c-0.132-0.027-0.249-0.122-0.306-0.273
		C39.901,56.462,40.009,56.144,40.239,56.009z"/>
	<path style="fill-rule:evenodd;clip-rule:evenodd;fill:#FBCD00;" d="M44.546,22.431l-0.933,1.397
		c-0.102,0.152-0.06,0.357,0.091,0.46l1.553,1.037c0.152,0.101,0.358,0.06,0.46-0.091l0.933-1.397
		c0.102-0.153,0.06-0.358-0.091-0.46l-1.553-1.037C44.853,22.238,44.648,22.279,44.546,22.431z"/>
	<path style="fill-rule:evenodd;clip-rule:evenodd;fill:#850317;" d="M49.595,26.799c0.054-0.607-0.56-1.105-0.769-1.673
		c-0.225-0.614-0.143-1.473-0.642-1.922c-0.708-0.637-1.955-0.026-2.27,1.132c-0.315,1.158,0.256,2.609,1.273,3.239
		C48.205,28.205,49.502,27.838,49.595,26.799z"/>
	<path style="fill-rule:evenodd;clip-rule:evenodd;fill:#F1A84A;" d="M48.733,25.535c0.108,0.049,0.218,0.05,0.312,0.013
		c-0.087-0.137-0.167-0.279-0.22-0.422c-0.064-0.177-0.104-0.374-0.14-0.575c-0.128,0.041-0.233,0.15-0.272,0.306
		C48.345,25.122,48.489,25.427,48.733,25.535z"/>
	<path style="fill-rule:evenodd;clip-rule:evenodd;fill:#FBCD00;" d="M53.818,28.345l-0.934,1.398
		c-0.101,0.151-0.06,0.357,0.091,0.46l1.553,1.037c0.152,0.101,0.358,0.06,0.46-0.091l0.933-1.397
		c0.102-0.152,0.06-0.358-0.091-0.46l-1.553-1.036C54.125,28.152,53.92,28.193,53.818,28.345z"/>
	<path style="fill-rule:evenodd;clip-rule:evenodd;fill:#3B9100;" d="M46.646,27.181c1.545-1.713,4.189-1.85,5.903-0.304
		c1.714,1.545,1.85,4.188,0.304,5.902c-1.545,1.713-4.189,1.85-5.903,0.304C45.238,31.538,45.102,28.893,46.646,27.181z"/>
	<path style="fill-rule:evenodd;clip-rule:evenodd;fill:#9CF088;" d="M47.178,27.661c1.279-1.42,3.472-1.533,4.892-0.254
		c1.419,1.281,1.534,3.473,0.253,4.892c-1.281,1.42-3.472,1.533-4.892,0.253C46.012,31.271,45.897,29.08,47.178,27.661z"/>
	<path style="fill-rule:evenodd;clip-rule:evenodd;fill:#89E372;" d="M50.116,32.297c-0.212-0.327-0.265-0.773-0.117-0.996
		c0.148-0.222,0.441-0.137,0.653,0.189c0.212,0.327,0.265,0.774,0.117,0.998C50.621,32.711,50.328,32.625,50.116,32.297z
		 M48.959,31.673c0.015-0.29,0.179-0.582,0.366-0.651c0.185-0.069,0.325,0.11,0.31,0.401c-0.015,0.29-0.179,0.583-0.365,0.652
		C49.082,32.143,48.943,31.965,48.959,31.673z M47.666,31.743c-0.256-0.078-0.257-0.383-0.004-0.679
		c0.253-0.297,0.667-0.474,0.922-0.396c0.256,0.078,0.257,0.383,0.002,0.679C48.334,31.644,47.921,31.821,47.666,31.743z
		 M50.964,31.289c-0.274-0.099-0.506-0.339-0.519-0.538s0.199-0.28,0.473-0.181c0.274,0.098,0.506,0.339,0.519,0.537
		C51.449,31.306,51.237,31.387,50.964,31.289z M47.686,30.289c-0.121-0.157,0.009-0.343,0.29-0.413s0.609-0.001,0.731,0.157
		c0.121,0.158-0.009,0.344-0.292,0.415C48.135,30.518,47.806,30.447,47.686,30.289z M51.053,30.131
		c-0.161-0.212,0.014-0.461,0.393-0.555c0.379-0.092,0.817,0.004,0.98,0.217c0.162,0.212-0.014,0.46-0.393,0.553
		S51.216,30.343,51.053,30.131z M50.536,29.584c-0.191-0.053-0.2-0.279-0.017-0.506c0.182-0.226,0.486-0.367,0.677-0.315
		c0.191,0.053,0.199,0.279,0.017,0.506C51.032,29.496,50.728,29.638,50.536,29.584z M48.089,29.321
		c-0.358-0.154-0.651-0.494-0.653-0.761c-0.001-0.267,0.289-0.36,0.647-0.205c0.358,0.153,0.651,0.494,0.653,0.761
		S48.447,29.475,48.089,29.321z M48.98,29.004c-0.163-0.241-0.208-0.573-0.103-0.74c0.107-0.168,0.326-0.109,0.489,0.131
		c0.163,0.241,0.208,0.573,0.103,0.74C49.362,29.303,49.144,29.244,48.98,29.004z M49.868,28.241
		c0.021-0.389,0.24-0.782,0.491-0.874c0.25-0.094,0.437,0.148,0.416,0.537c-0.021,0.39-0.242,0.782-0.491,0.874
		C50.034,28.872,49.846,28.632,49.868,28.241z"/>
	<path style="fill-rule:evenodd;clip-rule:evenodd;fill:#46BB00;" d="M42.993,31.841c0.22-0.339,0.868-0.018,1.179-0.277
		c0.267-0.223,0.48-0.322,0.417-0.959c-0.067-0.673-0.74-1.94,0.134-2.319c0.354-0.153,0.555,0.688,0.795,0.856
		c0.249,0.176,0.567-0.008,0.712-0.472c0.303-0.974-0.363-2.346,0.473-2.526c0.2-0.044,0.298,0.307,0.352,0.501
		c0.071,0.262,0.425,0.107,0.487-0.27c0.108-0.679-0.095-1.551,0.593-1.592c0.303-0.018,0.33,0.56,0.358,0.842
		c0.037,0.371,0.391,0.235,0.486,0.1c0.33-0.467,0.257-1.459,0.825-1.782c0.311-0.175,0.419,0.149,0.654,0.077
		c0.379-0.116,0.844-1.31,1.494-0.829l0.005,0.004c0.642,0.489-0.374,1.27-0.379,1.667c-0.004,0.245,0.338,0.259,0.256,0.605
		c-0.15,0.636-1.124,0.841-1.48,1.289c-0.103,0.13-0.135,0.507,0.23,0.439c0.28-0.051,0.841-0.186,0.91,0.109
		c0.153,0.672-0.741,0.72-1.363,1.014c-0.344,0.162-0.394,0.547-0.125,0.54c0.202-0.001,0.565-0.005,0.579,0.198
		c0.06,0.855-1.441,0.596-2.293,1.159c-0.406,0.268-0.495,0.623-0.256,0.814c0.229,0.184,1.092,0.141,1.043,0.525
		c-0.121,0.944-1.525,0.652-2.19,0.776c-0.628,0.117-0.664,0.349-0.804,0.669c-0.162,0.37,0.328,0.905,0.063,1.208
		c-0.474,0.547-1.36,0.116-2.145,0.114l-0.52-0.39C43.261,33.18,42.6,32.448,42.993,31.841z"/>
	<path style="fill-rule:evenodd;clip-rule:evenodd;fill:#3A9C00;" d="M39.417,47.115c0.185,0.359-0.416,0.764-0.346,1.161
		c0.06,0.343,0.041,0.576,0.626,0.84c0.617,0.276,2.05,0.321,1.946,1.267c-0.044,0.384-0.871,0.14-1.138,0.264
		c-0.276,0.13-0.275,0.494,0.058,0.852c0.695,0.747,2.216,0.849,1.958,1.665c-0.062,0.195-0.415,0.105-0.61,0.055
		c-0.262-0.068-0.303,0.317-0.006,0.557c0.536,0.431,1.394,0.688,1.087,1.306c-0.135,0.271-0.65,0.009-0.908-0.108
		c-0.34-0.152-0.397,0.222-0.329,0.372c0.242,0.52,1.139,0.948,1.137,1.601c-0.002,0.357-0.336,0.289-0.392,0.53
		c-0.087,0.385,0.717,1.383-0.023,1.708l-0.005,0.003c-0.743,0.315-0.917-0.955-1.258-1.157c-0.212-0.125-0.393,0.164-0.653-0.078
		c-0.478-0.447-0.172-1.393-0.384-1.925c-0.062-0.154-0.373-0.37-0.496-0.018c-0.094,0.27-0.254,0.823-0.546,0.734
		c-0.658-0.2-0.257-1-0.202-1.687c0.03-0.379-0.279-0.612-0.409-0.376c-0.098,0.176-0.276,0.494-0.459,0.405
		c-0.772-0.374,0.199-1.547,0.132-2.567c-0.032-0.485-0.296-0.74-0.579-0.627c-0.274,0.106-0.665,0.877-0.974,0.644
		c-0.759-0.574,0.191-1.647,0.415-2.287c0.211-0.604,0.027-0.75-0.181-1.03c-0.24-0.324-0.948-0.166-1.08-0.546
		c-0.239-0.683,0.576-1.239,0.966-1.918l0.599-0.258C38.12,46.682,39.084,46.472,39.417,47.115z"/>
	<path style="fill-rule:evenodd;clip-rule:evenodd;fill:#F0331B;" d="M23.267,34.485c1.762,0.285,2.961,1.948,2.676,3.711
		c-0.285,1.762-1.947,2.961-3.71,2.676c-1.762-0.285-2.961-1.948-2.676-3.711S21.505,34.198,23.267,34.485z"/>
	<path style="fill-rule:evenodd;clip-rule:evenodd;fill:#FB5039;" d="M21.859,35.492c0.537,0.087,0.902,0.593,0.814,1.13
		c-0.087,0.537-0.592,0.901-1.129,0.814c-0.537-0.087-0.902-0.593-0.815-1.13C20.816,35.771,21.322,35.405,21.859,35.492z"/>
	<path style="fill-rule:evenodd;clip-rule:evenodd;fill:#850317;" d="M19.909,43.992c0.279-0.543,1.062-0.636,1.543-1.005
		c0.519-0.399,0.906-1.17,1.567-1.284c0.938-0.16,1.669,1.022,1.315,2.169c-0.351,1.149-1.607,2.071-2.804,2.062
		C20.334,45.922,19.432,44.921,19.909,43.992z"/>
	<path style="fill-rule:evenodd;clip-rule:evenodd;fill:#91081D;" d="M20.09,44.317c0.085-0.267,0.329-0.417,0.545-0.336
		c0.217,0.08,0.324,0.362,0.239,0.63c-0.083,0.267-0.328,0.417-0.545,0.336C20.113,44.867,20.005,44.584,20.09,44.317z"/>
	<path style="fill-rule:evenodd;clip-rule:evenodd;fill:#F1A84A;" d="M21.313,43.382c-0.118-0.017-0.213-0.075-0.272-0.154
		c0.148-0.071,0.289-0.146,0.411-0.24c0.149-0.116,0.288-0.261,0.425-0.412c0.086,0.104,0.117,0.252,0.068,0.406
		C21.86,43.242,21.576,43.421,21.313,43.382z"/>
	<path style="fill-rule:evenodd;clip-rule:evenodd;fill:#46A605;" d="M20.756,40.13c1.413-1.823,4.039-2.157,5.863-0.746
		c1.314,1.017,1.855,2.664,1.527,4.186l-8.151-1.853C20.129,41.157,20.381,40.616,20.756,40.13z"/>
	<path style="fill-rule:evenodd;clip-rule:evenodd;fill:#9CF088;" d="M21.321,40.569c1.172-1.511,3.349-1.789,4.86-0.619
		c1.087,0.841,1.535,2.202,1.267,3.462l-6.754-1.537C20.803,41.414,21.011,40.969,21.321,40.569z"/>
	<path style="fill-rule:evenodd;clip-rule:evenodd;fill:#89E372;" d="M22.824,40.689c0.315,0.231,0.523,0.629,0.464,0.89
		c-0.059,0.259-0.362,0.285-0.678,0.054c-0.315-0.23-0.522-0.629-0.462-0.889C22.205,40.483,22.508,40.458,22.824,40.689z
		 M22.311,42.027c0.29-0.006,0.593,0.135,0.677,0.316c0.009,0.021,0.015,0.041,0.019,0.06l-1.053-0.24
		C22.013,42.083,22.142,42.029,22.311,42.027z M23.596,40.654c0.148-0.132,0.344-0.017,0.436,0.259
		c0.091,0.276,0.045,0.609-0.103,0.741s-0.344,0.017-0.434-0.259C23.402,41.119,23.448,40.786,23.596,40.654z M24.591,40.983
		c0.126-0.37,0.445-0.687,0.71-0.709c0.266-0.02,0.38,0.261,0.253,0.632c-0.126,0.37-0.444,0.686-0.71,0.708
		C24.58,41.635,24.465,41.351,24.591,40.983z M24.975,41.848c0.227-0.181,0.555-0.25,0.73-0.158
		c0.176,0.094,0.134,0.317-0.093,0.498c-0.227,0.181-0.556,0.252-0.731,0.158C24.706,42.251,24.748,42.029,24.975,41.848z
		 M25.801,42.678c0.391-0.009,0.798,0.181,0.91,0.422c0.024,0.053,0.033,0.104,0.027,0.152l-1.451-0.331
		C25.343,42.78,25.533,42.681,25.801,42.678z"/>
	<path style="fill-rule:evenodd;clip-rule:evenodd;fill:#FB6113;" d="M23.386,44.196c-2.423,0.471-4.552-0.527-5.268-2.203
		l-0.06-0.457l1.244,0.08c0.658,1.141,2.208,1.782,3.959,1.398c2.249-0.311,3.942-2.072,3.814-3.861
		c-0.001-0.009-0.004-0.018-0.004-0.026l0.817-0.738l0.217,0.407c0.05,0.171,0.071,0.34,0.073,0.541
		C28.332,41.541,26.234,43.754,23.386,44.196z"/>
	<path style="fill-rule:evenodd;clip-rule:evenodd;fill:#FB9528;" d="M23.285,43.833c-2.389,0.455-4.502-0.583-5.227-2.296
		l1.165-0.374c0.662,1.168,2.199,1.836,3.926,1.464c2.219-0.293,3.872-2.067,3.727-3.887c-0.001-0.009-0.004-0.017-0.005-0.026
		l1.019-0.326c0.051,0.175,0.074,0.348,0.077,0.549C28.142,41.183,26.093,43.412,23.285,43.833z"/>
	<path style="fill-rule:evenodd;clip-rule:evenodd;fill:#FBCD00;" d="M23.135,43.943v2.021c0,0.219,0.179,0.398,0.398,0.398h2.245
		c0.22,0,0.398-0.179,0.398-0.398v-2.021c0-0.22-0.179-0.398-0.398-0.398h-2.245C23.313,43.545,23.135,43.724,23.135,43.943z"/>
	<path style="fill-rule:evenodd;clip-rule:evenodd;fill:#FBCD00;" d="M24.037,39.41l1.224,1.607
		c0.132,0.175,0.383,0.209,0.558,0.076l1.787-1.36c0.175-0.134,0.209-0.383,0.076-0.557l-1.224-1.608
		c-0.134-0.175-0.383-0.209-0.557-0.076l-1.787,1.36C23.938,38.985,23.903,39.235,24.037,39.41z"/>
	<path style="fill-rule:evenodd;clip-rule:evenodd;fill:#FFFFFF;" d="M25.236,40.668v4.518c0,0.492,0.399,0.891,0.892,0.891h4.518
		c0.492,0,0.892-0.399,0.892-0.891v-4.518c0-0.492-0.4-0.891-0.892-0.891h-4.518C25.636,39.777,25.236,40.177,25.236,40.668z"/>
	<path style="fill-rule:evenodd;clip-rule:evenodd;fill:#DFDFDF;" d="M29.022,46.079c0.059-0.114,0.198-0.16,0.313-0.104
		c0.045,0.023,0.081,0.06,0.103,0.104H29.022z M30.187,45.98c-0.085-0.042-0.119-0.146-0.077-0.231
		c0.042-0.086,0.146-0.119,0.231-0.077c0.086,0.044,0.121,0.146,0.078,0.231C30.377,45.989,30.273,46.022,30.187,45.98z
		 M26.71,45.757c-0.085-0.042-0.119-0.146-0.077-0.231c0.042-0.086,0.146-0.119,0.231-0.077c0.085,0.042,0.119,0.146,0.078,0.232
		C26.899,45.766,26.795,45.8,26.71,45.757z M30.895,45.119c-0.155-0.077-0.217-0.266-0.14-0.421c0.077-0.154,0.266-0.217,0.421-0.14
		c0.155,0.077,0.217,0.266,0.141,0.42C31.239,45.133,31.049,45.196,30.895,45.119z M29.126,45.062
		c-0.086-0.042-0.119-0.146-0.077-0.232c0.042-0.085,0.146-0.119,0.231-0.077c0.085,0.042,0.119,0.146,0.077,0.232
		C29.315,45.07,29.211,45.104,29.126,45.062z M27.095,44.545c-0.081-0.153-0.022-0.343,0.131-0.424
		c0.153-0.08,0.342-0.021,0.423,0.132c0.08,0.153,0.021,0.343-0.132,0.422C27.365,44.757,27.175,44.697,27.095,44.545z
		 M25.762,44.081c-0.086-0.042-0.119-0.146-0.077-0.232c0.042-0.085,0.146-0.119,0.233-0.077c0.086,0.042,0.119,0.146,0.077,0.232
		C25.951,44.089,25.846,44.124,25.762,44.081z M27.827,43.847c-0.059-0.113-0.015-0.253,0.098-0.312
		c0.113-0.06,0.253-0.015,0.312,0.096c0.06,0.113,0.015,0.253-0.096,0.312C28.028,44.004,27.888,43.96,27.827,43.847z M31.51,43.869
		c-0.086-0.041-0.12-0.146-0.077-0.232c0.022-0.044,0.06-0.073,0.104-0.087v0.331C31.528,43.877,31.519,43.874,31.51,43.869z
		 M30.136,43.763c-0.116-0.056-0.162-0.198-0.105-0.313c0.058-0.116,0.199-0.162,0.313-0.105c0.116,0.058,0.162,0.198,0.104,0.313
		C30.391,43.773,30.251,43.82,30.136,43.763z M31.328,42.908c-0.085-0.042-0.12-0.148-0.077-0.232
		c0.042-0.086,0.146-0.119,0.233-0.077c0.022,0.011,0.04,0.026,0.055,0.044v0.222C31.487,42.923,31.4,42.944,31.328,42.908z
		 M27.877,42.633c-0.155-0.077-0.217-0.266-0.14-0.421c0.077-0.154,0.267-0.217,0.421-0.14s0.217,0.267,0.14,0.421
		C28.222,42.647,28.031,42.71,27.877,42.633z M26.363,42.39c-0.086-0.042-0.119-0.146-0.078-0.232
		c0.042-0.085,0.146-0.119,0.233-0.077c0.085,0.042,0.119,0.146,0.077,0.232C26.552,42.398,26.448,42.432,26.363,42.39z
		 M30.473,41.925c-0.085-0.042-0.119-0.146-0.077-0.231c0.042-0.086,0.146-0.121,0.231-0.078c0.086,0.042,0.121,0.146,0.078,0.231
		C30.662,41.933,30.558,41.968,30.473,41.925z M29.267,41.877c-0.086-0.042-0.121-0.146-0.077-0.232
		c0.042-0.085,0.146-0.119,0.231-0.077c0.086,0.042,0.119,0.146,0.078,0.231C29.456,41.884,29.352,41.919,29.267,41.877z
		 M25.342,41.268c-0.085-0.042-0.121-0.146-0.078-0.232c0.042-0.085,0.146-0.119,0.233-0.077c0.085,0.042,0.119,0.146,0.077,0.231
		C25.53,41.276,25.426,41.31,25.342,41.268z M27.294,41.001c-0.154-0.077-0.217-0.267-0.14-0.421
		c0.077-0.154,0.266-0.217,0.421-0.14c0.154,0.078,0.218,0.266,0.14,0.421C27.637,41.015,27.448,41.077,27.294,41.001z
		 M28.629,40.255c-0.086-0.042-0.12-0.146-0.077-0.231c0.042-0.085,0.146-0.119,0.233-0.077c0.085,0.042,0.119,0.146,0.078,0.232
		C28.818,40.264,28.714,40.299,28.629,40.255z"/>
	<path style="fill-rule:evenodd;clip-rule:evenodd;fill:#46BB00;" d="M47.533,47.413c0.357-0.166,0.728,0.439,1.119,0.386
		c0.336-0.045,0.567-0.017,0.845-0.575c0.294-0.592,0.398-1.989,1.318-1.848c0.373,0.058,0.102,0.856,0.211,1.122
		c0.116,0.275,0.473,0.288,0.836-0.021c0.758-0.648,0.92-2.129,1.706-1.842c0.189,0.068,0.087,0.41,0.029,0.597
		c-0.077,0.252,0.298,0.309,0.543,0.029c0.443-0.506,0.731-1.333,1.321-1.008c0.259,0.144-0.017,0.634-0.143,0.883
		c-0.162,0.325,0.2,0.395,0.349,0.335c0.516-0.214,0.974-1.073,1.61-1.044c0.348,0.018,0.268,0.342,0.501,0.405
		c0.374,0.101,1.38-0.643,1.667,0.094l0.001,0.005c0.276,0.74-0.97,0.855-1.182,1.18c-0.131,0.202,0.144,0.392-0.103,0.634
		c-0.456,0.448-1.368,0.112-1.896,0.297c-0.153,0.054-0.375,0.348-0.037,0.483c0.258,0.103,0.793,0.284,0.695,0.564
		c-0.223,0.634-0.988,0.21-1.656,0.128c-0.369-0.045-0.61,0.248-0.384,0.383c0.167,0.103,0.469,0.29,0.376,0.466
		c-0.397,0.738-1.502-0.258-2.501-0.235c-0.475,0.01-0.734,0.257-0.635,0.539c0.093,0.271,0.83,0.686,0.59,0.977
		c-0.592,0.719-1.601-0.256-2.215-0.499c-0.581-0.23-0.732-0.056-1.014,0.135c-0.328,0.222-0.2,0.918-0.578,1.032
		c-0.677,0.205-1.186-0.612-1.833-1.022l-0.227-0.595C47.056,48.661,46.89,47.711,47.533,47.413z"/>
	<path style="fill-rule:evenodd;clip-rule:evenodd;fill:#FBCD00;" d="M41.046,24.109l-0.933,1.397
		c-0.101,0.151-0.06,0.358,0.091,0.46l1.553,1.037c0.152,0.101,0.357,0.06,0.46-0.091l0.934-1.398
		c0.102-0.152,0.06-0.357-0.091-0.46l-1.553-1.038C41.353,23.917,41.147,23.958,41.046,24.109z"/>
	<path style="fill-rule:evenodd;clip-rule:evenodd;fill:#3B9100;" d="M34.99,27.784c0.748-2.181,3.127-3.345,5.308-2.597
		c1.571,0.538,2.615,1.923,2.797,3.471l-8.313,0.874C34.727,28.957,34.792,28.364,34.99,27.784z"/>
	<path style="fill-rule:evenodd;clip-rule:evenodd;fill:#9CF088;" d="M35.667,28.016c0.62-1.808,2.591-2.772,4.399-2.153
		c1.3,0.446,2.164,1.59,2.317,2.868l-6.889,0.724C35.45,28.984,35.503,28.494,35.667,28.016z"/>
	<path style="fill-rule:evenodd;clip-rule:evenodd;fill:#89E372;" d="M37.128,27.645c0.374,0.115,0.698,0.426,0.726,0.692
		c0.028,0.266-0.25,0.387-0.624,0.271c-0.371-0.117-0.698-0.427-0.726-0.692C36.475,27.649,36.755,27.528,37.128,27.645z
		 M37.074,29.077c0.272-0.1,0.605-0.063,0.743,0.081c0.015,0.015,0.028,0.032,0.037,0.05l-1.075,0.113
		C36.811,29.226,36.914,29.135,37.074,29.077z M37.848,27.363c0.096-0.173,0.32-0.126,0.496,0.105
		c0.176,0.231,0.24,0.56,0.141,0.733c-0.098,0.173-0.32,0.126-0.495-0.105C37.814,27.865,37.751,27.536,37.848,27.363z
		 M38.895,27.353c0.001-0.389,0.2-0.792,0.446-0.899c0.244-0.105,0.444,0.125,0.444,0.515c-0.001,0.39-0.2,0.794-0.444,0.9
		C39.094,27.974,38.895,27.743,38.895,27.353z M39.538,28.048c0.158-0.244,0.444-0.416,0.64-0.385
		c0.198,0.033,0.229,0.257,0.072,0.502c-0.158,0.245-0.444,0.417-0.641,0.384C39.413,28.518,39.381,28.294,39.538,28.048z
		 M40.589,28.566c0.366-0.135,0.813-0.086,0.997,0.108c0.038,0.041,0.064,0.087,0.073,0.135l-1.481,0.155
		C40.186,28.812,40.335,28.657,40.589,28.566z"/>
	<path style="fill-rule:evenodd;clip-rule:evenodd;fill:#FBCD00;" d="M35.876,27.206l-0.934,1.398
		c-0.101,0.152-0.06,0.357,0.091,0.46l1.553,1.037c0.152,0.101,0.357,0.06,0.459-0.091l0.933-1.397
		c0.101-0.152,0.06-0.357-0.091-0.46l-1.553-1.038C36.183,27.014,35.978,27.055,35.876,27.206z"/>
	<path style="fill-rule:evenodd;clip-rule:evenodd;fill:#850317;" d="M32.485,26.062c0.568,0.223,0.74,0.994,1.155,1.434
		c0.448,0.476,1.254,0.785,1.434,1.432c0.254,0.916-0.849,1.762-2.026,1.527c-1.178-0.234-2.221-1.392-2.331-2.585
		C30.607,26.68,31.513,25.682,32.485,26.062z"/>
	<path style="fill-rule:evenodd;clip-rule:evenodd;fill:#91081D;" d="M32.18,26.277c0.274,0.056,0.448,0.285,0.389,0.508
		c-0.058,0.223-0.329,0.358-0.603,0.3c-0.274-0.055-0.448-0.284-0.389-0.507C31.635,26.354,31.905,26.219,32.18,26.277z"/>
	<path style="fill-rule:evenodd;clip-rule:evenodd;fill:#F1A84A;" d="M33.233,27.399c0.005-0.118,0.053-0.218,0.127-0.285
		c0.085,0.139,0.175,0.272,0.28,0.384c0.13,0.137,0.288,0.261,0.452,0.381c-0.095,0.096-0.238,0.142-0.396,0.108
		C33.428,27.929,33.22,27.666,33.233,27.399z"/>
	<path style="fill-rule:evenodd;clip-rule:evenodd;fill:#83518D;" d="M35.369,26.206l-0.317-0.384
		c-0.104,1.238-2.234,3.996-3.674,4.627l0.45,0.277C34.088,29.846,35.464,28.011,35.369,26.206z"/>
	<path style="fill-rule:evenodd;clip-rule:evenodd;fill:#C7AECC;" d="M35.062,25.827c-1.372,0.096-1.372,0.096-1.372,0.096
		c-0.071,1.405-1.128,2.655-2.752,3.236c0.43,1.306,0.43,1.306,0.43,1.306C33.645,29.669,35.189,27.801,35.062,25.827z"/>
	<path style="fill-rule:evenodd;clip-rule:evenodd;fill:#FBCD00;" d="M29.365,28.25l-1.222,1.154
		c-0.132,0.126-0.139,0.335-0.013,0.467l1.282,1.358c0.126,0.132,0.335,0.139,0.468,0.013l1.222-1.154
		c0.132-0.126,0.139-0.335,0.013-0.467l-1.282-1.358C29.707,28.131,29.497,28.124,29.365,28.25z"/>
	<path style="fill-rule:evenodd;clip-rule:evenodd;fill:#1F2921;" d="M22.981,32.156c-0.468-1.779,0.674-3.26,2.541-3.387
		c1.865-0.127,3.771,1.271,4.315,3.011c0.542,1.74-0.6,3.22-2.465,3.347C25.505,35.254,23.524,33.896,22.981,32.156z"/>
	<path style="fill-rule:evenodd;clip-rule:evenodd;fill:#323633;" d="M23.582,30.385c0.105-0.347,0.556-0.588,0.827-0.442
		c0.306,0.029,0.432,0.445,0.252,0.832c-0.181,0.386-0.556,0.587-0.862,0.557C23.526,31.188,23.401,30.772,23.582,30.385z"/>
	<path style="fill-rule:evenodd;clip-rule:evenodd;fill:#850317;" d="M25.688,51.716c0.278-0.543,1.062-0.637,1.543-1.005
		c0.519-0.399,0.907-1.17,1.567-1.283c0.938-0.162,1.669,1.021,1.315,2.169c-0.351,1.148-1.607,2.071-2.804,2.062
		C26.115,53.646,25.212,52.645,25.688,51.716z"/>
	<path style="fill-rule:evenodd;clip-rule:evenodd;fill:#91081D;" d="M25.869,52.043c0.085-0.267,0.329-0.419,0.545-0.336
		c0.216,0.081,0.324,0.363,0.239,0.63c-0.083,0.266-0.328,0.417-0.545,0.336C25.894,52.591,25.786,52.309,25.869,52.043z"/>
	<path style="fill-rule:evenodd;clip-rule:evenodd;fill:#F1A84A;" d="M27.094,51.105c-0.118-0.017-0.212-0.075-0.272-0.155
		c0.148-0.071,0.29-0.146,0.411-0.24c0.15-0.116,0.288-0.261,0.425-0.412c0.086,0.104,0.117,0.252,0.068,0.404
		C27.641,50.965,27.357,51.145,27.094,51.105z"/>
	<path style="fill-rule:evenodd;clip-rule:evenodd;fill:#1F2921;" d="M24.448,50.537c-1.622-0.869-1.928-2.714-0.75-4.168
		c1.178-1.452,3.501-1.896,5.143-1.109c1.643,0.787,1.949,2.632,0.772,4.084C28.435,50.796,26.09,51.323,24.448,50.537z"/>
	<path style="fill-rule:evenodd;clip-rule:evenodd;fill:#323633;" d="M23.56,48.891c-0.182-0.313-0.051-0.808,0.24-0.906
		c0.23-0.204,0.621-0.013,0.78,0.383c0.16,0.395,0.051,0.808-0.179,1.01C24.11,49.478,23.719,49.285,23.56,48.891z"/>
	<path style="fill-rule:evenodd;clip-rule:evenodd;fill:#FBCD00;" d="M27.366,49.877l0.566,1.582c0.062,0.172,0.25,0.262,0.423,0.2
		l1.759-0.629c0.172-0.062,0.262-0.252,0.2-0.424l-0.566-1.582c-0.062-0.172-0.25-0.262-0.423-0.2l-1.759,0.629
		C27.395,49.516,27.306,49.705,27.366,49.877z"/>
	<path style="fill-rule:evenodd;clip-rule:evenodd;fill:#3B9100;" d="M56.802,35.355c1.994,1.161,2.671,3.721,1.511,5.714
		c-0.835,1.435-2.397,2.189-3.95,2.063l0.767-8.323C55.704,34.869,56.273,35.047,56.802,35.355z"/>
	<path style="fill-rule:evenodd;clip-rule:evenodd;fill:#9CF088;" d="M56.443,35.974c1.653,0.962,2.213,3.084,1.252,4.735
		c-0.691,1.188-1.982,1.81-3.265,1.711l0.635-6.897C55.537,35.572,56.006,35.72,56.443,35.974z"/>
	<path style="fill-rule:evenodd;clip-rule:evenodd;fill:#89E372;" d="M56.521,37.478c-0.186,0.344-0.554,0.601-0.819,0.576
		s-0.33-0.321-0.143-0.664c0.186-0.341,0.555-0.601,0.821-0.576C56.646,36.838,56.71,37.136,56.521,37.478z M55.129,37.146
		c0.045,0.288-0.055,0.606-0.225,0.713c-0.018,0.011-0.037,0.021-0.057,0.026l0.099-1.076
		C55.034,36.859,55.103,36.979,55.129,37.146z M56.659,38.24c0.15,0.13,0.062,0.338-0.2,0.465c-0.261,0.127-0.596,0.126-0.746-0.004
		c-0.152-0.13-0.062-0.338,0.2-0.465C56.172,38.109,56.507,38.111,56.659,38.24z M56.463,39.27c0.382,0.077,0.739,0.351,0.795,0.613
		c0.056,0.261-0.209,0.411-0.592,0.334s-0.739-0.351-0.795-0.612C55.815,39.343,56.081,39.194,56.463,39.27z M55.655,39.764
		c0.208,0.203,0.321,0.517,0.252,0.704c-0.071,0.186-0.297,0.173-0.506-0.027c-0.209-0.203-0.321-0.519-0.252-0.704
		C55.22,39.55,55.446,39.563,55.655,39.764z M54.942,40.693c0.062,0.385-0.075,0.815-0.299,0.957
		c-0.049,0.031-0.099,0.046-0.145,0.046l0.136-1.483C54.78,40.251,54.903,40.427,54.942,40.693z"/>
	<path style="fill-rule:evenodd;clip-rule:evenodd;fill:#83518D;" d="M52.599,35.466l-0.169-0.469
		c1.119,0.539,4.577,0.104,5.851-0.817l0.012,0.528C56.387,36.211,54.109,36.465,52.599,35.466z"/>
	<path style="fill-rule:evenodd;clip-rule:evenodd;fill:#C7AECC;" d="M52.43,35.007c0.778-1.132,0.778-1.132,0.778-1.132
		c1.246,0.651,2.861,0.375,4.184-0.728c0.907,1.034,0.907,1.034,0.907,1.034C56.458,35.738,54.065,36.121,52.43,35.007z"/>
	<path style="fill-rule:evenodd;clip-rule:evenodd;fill:#850317;" d="M57.793,42.081c-0.409-0.452-1.191-0.34-1.75-0.571
		c-0.605-0.252-1.178-0.895-1.846-0.834c-0.948,0.087-1.347,1.417-0.71,2.436c0.636,1.018,2.089,1.584,3.242,1.265
		C57.882,44.056,58.494,42.854,57.793,42.081z"/>
	<path style="fill-rule:evenodd;clip-rule:evenodd;fill:#91081D;" d="M57.703,42.443c-0.15-0.236-0.426-0.318-0.614-0.185
		c-0.188,0.135-0.22,0.435-0.068,0.671c0.149,0.236,0.425,0.318,0.613,0.184C57.822,42.978,57.853,42.678,57.703,42.443z"/>
	<path style="fill-rule:evenodd;clip-rule:evenodd;fill:#F1A84A;" d="M56.278,41.855c0.109-0.048,0.185-0.127,0.222-0.221
		c-0.16-0.03-0.317-0.067-0.459-0.126c-0.173-0.072-0.346-0.177-0.518-0.289c-0.057,0.122-0.049,0.273,0.039,0.408
		C55.713,41.859,56.034,41.96,56.278,41.855z"/>
	<path style="fill-rule:evenodd;clip-rule:evenodd;fill:#83518D;" d="M53.762,42.341l0.448-0.218
		c-0.419,1.168,0.375,4.562,1.423,5.734l-0.523,0.067C53.417,46.187,52.927,43.946,53.762,42.341z"/>
	<path style="fill-rule:evenodd;clip-rule:evenodd;fill:#C7AECC;" d="M54.2,42.125c1.209,0.656,1.209,0.656,1.209,0.656
		c-0.518,1.307-0.075,2.884,1.161,4.085c-0.933,1.009-0.933,1.009-0.933,1.009C53.895,46.208,53.264,43.867,54.2,42.125z"/>
	<path style="fill-rule:evenodd;clip-rule:evenodd;fill:#F0331B;" d="M53.552,36.249c1.955,0.312,3.289,2.152,2.976,4.106
		c-0.312,1.954-2.152,3.288-4.107,2.976c-1.955-0.312-3.287-2.152-2.976-4.106C49.758,37.271,51.598,35.937,53.552,36.249z"/>
	<path style="fill-rule:evenodd;clip-rule:evenodd;fill:#FB5039;" d="M51.994,37.371c0.595,0.095,1.001,0.655,0.906,1.251
		c-0.095,0.595-0.655,1.001-1.25,0.907c-0.595-0.095-1.001-0.655-0.906-1.249C50.838,37.682,51.399,37.276,51.994,37.371z"/>
	<path style="fill-rule:evenodd;clip-rule:evenodd;fill:#FBCD00;" d="M54.074,34.74l-0.933,1.397
		c-0.101,0.153-0.06,0.358,0.091,0.46l1.553,1.037c0.152,0.101,0.357,0.06,0.459-0.091l0.934-1.398
		c0.102-0.152,0.06-0.358-0.091-0.46l-1.553-1.037C54.381,34.547,54.175,34.588,54.074,34.74z"/>
	<path style="fill-rule:evenodd;clip-rule:evenodd;fill:#1F2921;" d="M56.01,33.562c0.468-1.78-0.674-3.26-2.541-3.387
		c-1.865-0.127-3.772,1.271-4.315,3.011c-0.542,1.74,0.6,3.22,2.465,3.347C53.484,36.661,55.466,35.301,56.01,33.562z"/>
	<path style="fill-rule:evenodd;clip-rule:evenodd;fill:#323633;" d="M55.409,31.792c-0.105-0.347-0.556-0.588-0.827-0.443
		c-0.306,0.031-0.432,0.447-0.252,0.833c0.18,0.386,0.556,0.587,0.862,0.557C55.464,32.594,55.589,32.178,55.409,31.792z"/>
	<path style="fill-rule:evenodd;clip-rule:evenodd;fill:#1F2921;" d="M53.446,52.32c1.838,0.09,3.05-1.334,2.789-3.186
		c-0.261-1.851-2.023-3.428-3.838-3.599c-1.814-0.172-3.026,1.252-2.764,3.103C49.893,50.49,51.631,52.149,53.446,52.32z"/>
	<path style="fill-rule:evenodd;clip-rule:evenodd;fill:#323633;" d="M55.053,51.366c0.317-0.175,0.46-0.665,0.262-0.9
		c-0.093-0.294-0.525-0.331-0.866-0.074c-0.34,0.256-0.46,0.665-0.367,0.959C54.279,51.587,54.712,51.623,55.053,51.366z"/>
	<path style="fill-rule:evenodd;clip-rule:evenodd;fill:#FBCD00;" d="M23.61,33.732l0.566,1.582c0.062,0.172,0.25,0.262,0.423,0.2
		l1.759-0.629c0.172-0.062,0.262-0.252,0.2-0.424l-0.566-1.583c-0.062-0.172-0.252-0.262-0.423-0.2l-1.759,0.629
		C23.638,33.37,23.548,33.56,23.61,33.732z"/>
	<path style="fill-rule:evenodd;clip-rule:evenodd;fill:#83518D;" d="M21.082,33.725l0.136-0.479
		c0.592,1.09,3.652,2.761,5.223,2.761l-0.299,0.434C23.718,36.544,21.72,35.417,21.082,33.725z"/>
	<path style="fill-rule:evenodd;clip-rule:evenodd;fill:#C7AECC;" d="M21.212,33.255c1.295-0.464,1.295-0.464,1.295-0.464
		c0.63,1.258,2.1,1.979,3.82,1.857c0.13,1.369,0.13,1.369,0.13,1.369C24.053,36.202,21.888,35.112,21.212,33.255z"/>
	<path style="fill-rule:evenodd;clip-rule:evenodd;fill:#83518D;" d="M31.59,39.118l-0.236-0.438
		c-0.342,1.194-2.964,3.49-4.499,3.83l0.388,0.358C29.628,42.444,31.333,40.91,31.59,39.118z"/>
	<path style="fill-rule:evenodd;clip-rule:evenodd;fill:#C7AECC;" d="M31.36,38.688c-1.364-0.171-1.364-0.171-1.364-0.171
		c-0.34,1.365-1.62,2.388-3.325,2.644c0.171,1.364,0.171,1.364,0.171,1.364C29.229,42.183,31.104,40.649,31.36,38.688z"/>
	<path style="fill-rule:evenodd;clip-rule:evenodd;fill:#3B9100;" d="M26.569,33.415c1.545-1.713,4.189-1.85,5.903-0.304
		c1.712,1.545,1.85,4.189,0.304,5.901c-1.545,1.713-4.189,1.85-5.901,0.306C25.161,37.773,25.024,35.128,26.569,33.415z"/>
	<path style="fill-rule:evenodd;clip-rule:evenodd;fill:#9CF088;" d="M27.1,33.894c1.281-1.42,3.472-1.533,4.892-0.254
		c1.419,1.28,1.534,3.472,0.253,4.891c-1.281,1.421-3.472,1.533-4.892,0.254C25.934,37.506,25.819,35.313,27.1,33.894z"/>
	<path style="fill-rule:evenodd;clip-rule:evenodd;fill:#89E372;" d="M30.038,38.532c-0.213-0.327-0.265-0.774-0.117-0.996
		c0.148-0.223,0.439-0.137,0.651,0.19c0.213,0.327,0.265,0.774,0.118,0.996S30.25,38.86,30.038,38.532z M28.881,37.908
		c0.015-0.29,0.179-0.582,0.366-0.652c0.186-0.069,0.325,0.11,0.31,0.401c-0.015,0.29-0.18,0.583-0.366,0.652
		C29.004,38.378,28.865,38.198,28.881,37.908z M27.588,37.976c-0.256-0.078-0.258-0.383-0.004-0.679
		c0.253-0.297,0.667-0.474,0.921-0.396c0.256,0.078,0.257,0.383,0.003,0.681C28.257,37.877,27.843,38.055,27.588,37.976z
		 M30.886,37.523c-0.274-0.099-0.505-0.339-0.518-0.538c-0.013-0.199,0.199-0.28,0.473-0.182s0.505,0.34,0.519,0.537
		C31.372,37.541,31.16,37.622,30.886,37.523z M27.608,36.523c-0.121-0.157,0.009-0.343,0.292-0.413
		c0.281-0.071,0.609-0.001,0.73,0.157c0.122,0.158-0.009,0.344-0.292,0.415C28.057,36.751,27.73,36.681,27.608,36.523z
		 M30.976,36.365c-0.162-0.212,0.014-0.461,0.393-0.555s0.817,0.004,0.979,0.216c0.162,0.212-0.014,0.461-0.393,0.553
		C31.577,36.674,31.138,36.577,30.976,36.365z M30.458,35.819c-0.191-0.053-0.199-0.28-0.017-0.506
		c0.182-0.227,0.486-0.367,0.677-0.315c0.191,0.053,0.199,0.28,0.018,0.506C30.954,35.73,30.65,35.872,30.458,35.819z
		 M28.011,35.556c-0.358-0.153-0.65-0.494-0.653-0.761c-0.001-0.267,0.289-0.36,0.647-0.205c0.358,0.153,0.651,0.496,0.653,0.761
		S28.37,35.709,28.011,35.556z M28.903,35.237c-0.163-0.24-0.209-0.571-0.103-0.74c0.107-0.168,0.326-0.109,0.489,0.131
		c0.163,0.241,0.209,0.573,0.103,0.741C29.285,35.537,29.066,35.479,28.903,35.237z M29.79,34.476
		c0.021-0.39,0.24-0.782,0.491-0.874c0.25-0.094,0.437,0.148,0.416,0.537c-0.021,0.39-0.24,0.782-0.491,0.876
		C29.956,35.106,29.77,34.865,29.79,34.476z"/>
	<path style="fill-rule:evenodd;clip-rule:evenodd;fill:#FB6113;" d="M51.637,43.954c-1.858-1.625-2.374-3.92-1.489-5.512
		l0.324-0.329l0.7,1.031c-0.498,1.218-0.055,2.837,1.323,3.985c1.625,1.587,4.054,1.844,5.388,0.647
		c0.005-0.008,0.013-0.013,0.018-0.019l1.084,0.193l-0.188,0.421c-0.105,0.144-0.225,0.266-0.382,0.389
		C56.766,46.233,53.732,45.934,51.637,43.954z"/>
	<path style="fill-rule:evenodd;clip-rule:evenodd;fill:#FB9528;" d="M51.862,43.651c-1.824-1.609-2.299-3.915-1.391-5.536
		l1.008,0.692c-0.516,1.238-0.103,2.863,1.251,3.998c1.59,1.574,4.005,1.791,5.354,0.562c0.005-0.008,0.012-0.014,0.018-0.021
		l0.881,0.605c-0.107,0.148-0.227,0.271-0.387,0.398C56.932,45.865,53.915,45.613,51.862,43.651z"/>
	<path style="fill-rule:evenodd;clip-rule:evenodd;fill:#850317;" d="M52.689,35.746c-0.608-0.044-1.095,0.578-1.66,0.799
		c-0.61,0.236-1.469,0.168-1.91,0.674c-0.624,0.719,0.008,1.956,1.172,2.251s2.604-0.3,3.218-1.329
		C54.119,37.111,53.73,35.82,52.689,35.746z"/>
	<path style="fill-rule:evenodd;clip-rule:evenodd;fill:#91081D;" d="M52.873,36.07c-0.271-0.067-0.528,0.066-0.57,0.291
		c-0.044,0.227,0.143,0.465,0.415,0.532c0.271,0.067,0.527-0.063,0.57-0.29C53.332,36.375,53.145,36.136,52.873,36.07z"/>
	<path style="fill-rule:evenodd;clip-rule:evenodd;fill:#F1A84A;" d="M51.439,36.631c0.046-0.109,0.046-0.22,0.008-0.313
		c-0.136,0.089-0.275,0.171-0.419,0.226c-0.176,0.068-0.373,0.11-0.573,0.149c0.044,0.127,0.154,0.231,0.311,0.268
		C51.033,37.025,51.335,36.876,51.439,36.631z"/>
	<path style="fill-rule:evenodd;clip-rule:evenodd;fill:#FB6113;" d="M47.294,42.993c-2.464,0.157-4.447-1.105-4.942-2.861
		l-0.002-0.461l1.223,0.237c0.506,1.217,1.962,2.052,3.748,1.895c2.271-0.019,4.175-1.551,4.278-3.34
		c-0.001-0.009-0.001-0.018-0.001-0.027l0.904-0.627l0.163,0.43c0.027,0.176,0.027,0.347,0.003,0.544
		C52.539,40.993,50.175,42.92,47.294,42.993z"/>
	<path style="fill-rule:evenodd;clip-rule:evenodd;fill:#FB9528;" d="M47.241,42.621c-2.427,0.145-4.389-1.154-4.889-2.945
		l1.204-0.22c0.505,1.242,1.945,2.102,3.706,1.954c2.238-0.005,4.104-1.554,4.194-3.375c-0.002-0.01-0.002-0.019-0.002-0.028
		l1.051-0.193c0.028,0.18,0.029,0.353,0.006,0.555C52.396,40.616,50.08,42.564,47.241,42.621z"/>
	<path style="fill-rule:evenodd;clip-rule:evenodd;fill:#46BB00;" d="M41.892,37.289c0.328-0.236,0.817,0.298,1.198,0.168
		c0.33-0.11,0.565-0.126,0.737-0.743c0.181-0.651,0.013-2.075,0.965-2.112c0.387-0.014,0.267,0.842,0.43,1.086
		c0.168,0.255,0.531,0.198,0.834-0.182c0.637-0.799,0.511-2.317,1.356-2.183c0.202,0.032,0.166,0.394,0.145,0.594
		c-0.028,0.27,0.358,0.253,0.551-0.076c0.347-0.594,0.474-1.48,1.129-1.269c0.289,0.093,0.107,0.641,0.03,0.914
		c-0.099,0.36,0.279,0.361,0.416,0.27c0.478-0.316,0.768-1.267,1.414-1.362c0.353-0.05,0.335,0.29,0.581,0.309
		c0.394,0.029,1.262-0.915,1.693-0.231l0.003,0.005c0.421,0.689-0.808,1.049-0.957,1.416c-0.092,0.227,0.221,0.365,0.019,0.656
		c-0.37,0.538-1.353,0.377-1.847,0.666c-0.143,0.083-0.31,0.422,0.055,0.492c0.28,0.053,0.852,0.131,0.808,0.431
		c-0.102,0.682-0.952,0.403-1.638,0.451c-0.38,0.027-0.565,0.366-0.312,0.46c0.189,0.071,0.529,0.199,0.469,0.394
		c-0.254,0.819-1.559,0.032-2.558,0.249c-0.474,0.104-0.686,0.402-0.532,0.666c0.146,0.253,0.966,0.528,0.782,0.868
		c-0.455,0.836-1.657,0.054-2.323-0.072c-0.628-0.118-0.746,0.086-0.992,0.331c-0.285,0.286-0.023,0.962-0.38,1.149
		c-0.64,0.338-1.31-0.385-2.04-0.672l-0.343-0.553C41.657,38.635,41.305,37.713,41.892,37.289z"/>
	<path style="fill-rule:evenodd;clip-rule:evenodd;fill:#850317;" d="M43.152,35.81c-0.346,0.503-0.054,1.238-0.15,1.836
		c-0.104,0.647-0.597,1.353-0.383,1.99c0.303,0.901,1.692,0.981,2.533,0.126c0.843-0.855,1.056-2.4,0.479-3.447
		C45.052,35.267,43.742,34.948,43.152,35.81z"/>
	<path style="fill-rule:evenodd;clip-rule:evenodd;fill:#F1A84A;" d="M43.282,37.337c-0.071-0.095-0.166-0.152-0.265-0.166
		c0.008,0.163,0.009,0.324-0.015,0.475c-0.029,0.186-0.092,0.377-0.16,0.571c0.132,0.026,0.277-0.017,0.388-0.133
		C43.418,37.885,43.443,37.55,43.282,37.337z"/>
	<path style="fill-rule:evenodd;clip-rule:evenodd;fill:#FFFFFF;" d="M43.973,39.075l1.122,4.377
		c0.122,0.476,0.608,0.764,1.084,0.642l4.377-1.121c0.477-0.122,0.764-0.609,0.642-1.084l-1.12-4.377
		c-0.122-0.476-0.608-0.764-1.084-0.642l-4.377,1.121C44.139,38.113,43.851,38.6,43.973,39.075z"/>
	<path style="fill-rule:evenodd;clip-rule:evenodd;fill:#DFDFDF;" d="M48.982,43.377c0.028-0.126,0.153-0.204,0.278-0.179
		c0.05,0.012,0.094,0.039,0.126,0.075L48.982,43.377z M50.086,42.992c-0.092-0.021-0.153-0.113-0.132-0.205
		c0.019-0.094,0.113-0.153,0.206-0.132c0.094,0.021,0.153,0.113,0.132,0.205C50.271,42.954,50.179,43.013,50.086,42.992z
		 M46.662,43.639c-0.092-0.021-0.153-0.113-0.132-0.205c0.019-0.092,0.112-0.153,0.206-0.132c0.092,0.021,0.152,0.113,0.132,0.205
		C46.847,43.599,46.756,43.66,46.662,43.639z M50.558,41.983c-0.168-0.037-0.276-0.204-0.24-0.374
		c0.036-0.168,0.203-0.276,0.373-0.24c0.17,0.036,0.278,0.204,0.24,0.374C50.894,41.911,50.728,42.019,50.558,41.983z M48.83,42.367
		c-0.094-0.021-0.153-0.112-0.132-0.205c0.019-0.092,0.112-0.152,0.204-0.132c0.094,0.021,0.153,0.112,0.132,0.205
		C49.015,42.327,48.924,42.387,48.83,42.367z M46.735,42.369c-0.117-0.128-0.105-0.326,0.023-0.443
		c0.127-0.116,0.326-0.105,0.442,0.023s0.105,0.327-0.022,0.443C47.048,42.508,46.849,42.498,46.735,42.369z M45.328,42.251
		c-0.094-0.021-0.153-0.112-0.132-0.205c0.019-0.092,0.112-0.151,0.206-0.132c0.094,0.021,0.153,0.113,0.132,0.207
		C45.513,42.211,45.421,42.272,45.328,42.251z M47.272,41.512c-0.086-0.094-0.078-0.241,0.017-0.327
		c0.095-0.086,0.242-0.078,0.326,0.017c0.086,0.095,0.077,0.24-0.017,0.327C47.504,41.614,47.358,41.607,47.272,41.512z
		 M50.846,40.619c-0.094-0.019-0.152-0.112-0.132-0.205c0.01-0.049,0.04-0.087,0.078-0.11l0.082,0.32
		C50.864,40.623,50.855,40.622,50.846,40.619z M49.486,40.857c-0.126-0.027-0.207-0.151-0.18-0.277s0.153-0.205,0.278-0.18
		c0.127,0.027,0.207,0.153,0.178,0.279C49.737,40.804,49.612,40.885,49.486,40.857z M50.428,39.734
		c-0.092-0.019-0.152-0.112-0.132-0.205c0.021-0.092,0.113-0.153,0.206-0.132c0.023,0.005,0.045,0.015,0.064,0.028l0.055,0.216
		C50.587,39.709,50.508,39.75,50.428,39.734z M47.019,40.323c-0.17-0.036-0.276-0.204-0.24-0.372c0.036-0.17,0.204-0.277,0.373-0.24
		c0.17,0.036,0.276,0.204,0.24,0.374C47.355,40.252,47.187,40.359,47.019,40.323z M45.492,40.464
		c-0.094-0.019-0.153-0.112-0.134-0.205c0.021-0.093,0.113-0.152,0.207-0.132c0.092,0.021,0.152,0.112,0.132,0.205
		C45.676,40.426,45.584,40.485,45.492,40.464z M49.358,38.994c-0.094-0.021-0.152-0.112-0.132-0.206
		c0.021-0.094,0.112-0.153,0.206-0.132c0.094,0.019,0.153,0.112,0.132,0.205C49.543,38.954,49.452,39.013,49.358,38.994z
		 M48.176,39.246c-0.092-0.021-0.153-0.113-0.131-0.205c0.019-0.092,0.112-0.151,0.206-0.132c0.092,0.019,0.153,0.112,0.132,0.204
		C48.362,39.207,48.27,39.265,48.176,39.246z M44.224,39.63c-0.092-0.021-0.153-0.113-0.132-0.205
		c0.019-0.093,0.112-0.152,0.205-0.132c0.094,0.019,0.153,0.112,0.132,0.205C44.409,39.591,44.317,39.65,44.224,39.63z
		 M46.048,38.886c-0.17-0.037-0.276-0.204-0.24-0.374c0.037-0.169,0.204-0.276,0.373-0.24c0.17,0.036,0.278,0.204,0.24,0.374
		C46.384,38.815,46.217,38.923,46.048,38.886z M47.156,37.833c-0.092-0.021-0.153-0.112-0.132-0.205
		c0.019-0.092,0.112-0.153,0.206-0.133c0.094,0.021,0.153,0.113,0.132,0.207C47.341,37.795,47.249,37.854,47.156,37.833z"/>
	<path style="fill-rule:evenodd;clip-rule:evenodd;fill:#83518D;" d="M45.828,39.273l-0.238-0.438
		c-0.34,1.194-2.963,3.49-4.497,3.83l0.387,0.36C43.868,42.597,45.573,41.063,45.828,39.273z"/>
	<path style="fill-rule:evenodd;clip-rule:evenodd;fill:#C7AECC;" d="M45.6,38.841c-1.364-0.171-1.364-0.171-1.364-0.171
		c-0.34,1.365-1.62,2.387-3.325,2.642c0.171,1.365,0.171,1.365,0.171,1.365C43.468,42.336,45.344,40.802,45.6,38.841z"/>
	<path style="fill-rule:evenodd;clip-rule:evenodd;fill:#FBCD00;" d="M36.914,53.712l0.2,1.668c0.022,0.181,0.186,0.311,0.369,0.289
		l1.854-0.222c0.181-0.022,0.311-0.188,0.289-0.369l-0.2-1.669c-0.022-0.181-0.186-0.311-0.369-0.289l-1.854,0.222
		C37.022,53.365,36.893,53.531,36.914,53.712z"/>
	<path style="fill-rule:evenodd;clip-rule:evenodd;fill:#1F2921;" d="M37.57,56.757c-1.202,1.247-2.952,1.053-3.967-0.385
		s-0.825-3.655,0.308-4.943c1.133-1.288,2.883-1.094,3.897,0.344S38.703,55.468,37.57,56.757z"/>
	<path style="fill-rule:evenodd;clip-rule:evenodd;fill:#323633;" d="M35.852,57.14c-0.33,0.085-0.745-0.159-0.761-0.448
		c-0.126-0.261,0.148-0.565,0.547-0.61c0.398-0.045,0.745,0.159,0.87,0.42C36.524,56.792,36.25,57.096,35.852,57.14z"/>
	<path style="fill-rule:evenodd;clip-rule:evenodd;fill:#46BB00;" d="M37.611,49.013c-0.279,0.293-0.858-0.144-1.21,0.054
		c-0.304,0.17-0.532,0.229-0.588,0.865c-0.059,0.673,0.367,2.043-0.56,2.253c-0.376,0.086-0.417-0.778-0.622-0.989
		c-0.213-0.219-0.558-0.098-0.786,0.333c-0.479,0.901-0.076,2.371-0.931,2.395c-0.206,0.005-0.236-0.358-0.253-0.558
		c-0.022-0.27-0.398-0.182-0.528,0.176c-0.231,0.647-0.195,1.542-0.877,1.455c-0.302-0.039-0.222-0.611-0.197-0.894
		c0.032-0.371-0.339-0.302-0.46-0.188c-0.411,0.398-0.523,1.387-1.139,1.599c-0.338,0.114-0.383-0.223-0.628-0.196
		c-0.394,0.044-1.073,1.131-1.621,0.538l-0.004-0.004c-0.541-0.6,0.602-1.179,0.681-1.568c0.049-0.241-0.284-0.317-0.139-0.642
		c0.266-0.597,1.26-0.62,1.693-0.994c0.125-0.108,0.226-0.472-0.145-0.474c-0.285,0-0.861,0.028-0.872-0.275
		c-0.026-0.688,0.861-0.571,1.527-0.745c0.369-0.096,0.488-0.465,0.222-0.51c-0.199-0.035-0.558-0.099-0.533-0.302
		c0.099-0.851,1.526-0.318,2.468-0.715c0.448-0.189,0.601-0.521,0.402-0.752c-0.191-0.223-1.047-0.341-0.929-0.709
		c0.293-0.905,1.619-0.358,2.296-0.357c0.638,0.001,0.718-0.221,0.915-0.507c0.227-0.334-0.154-0.949,0.162-1.201
		c0.567-0.449,1.358,0.139,2.128,0.285l0.439,0.482C37.595,47.646,38.109,48.489,37.611,49.013z"/>
	<path style="fill-rule:evenodd;clip-rule:evenodd;fill:#850317;" d="M28.334,42.847c0.563-0.236,1.223,0.198,1.828,0.226
		c0.654,0.028,1.447-0.311,2.026,0.028c0.821,0.481,0.618,1.855-0.391,2.506c-1.008,0.652-2.564,0.548-3.474-0.23
		C27.416,44.597,27.371,43.25,28.334,42.847z"/>
	<path style="fill-rule:evenodd;clip-rule:evenodd;fill:#91081D;" d="M28.264,43.213c0.236-0.149,0.52-0.108,0.633,0.094
		c0.114,0.202,0.013,0.487-0.224,0.637c-0.235,0.149-0.519,0.109-0.633-0.094C27.927,43.648,28.028,43.362,28.264,43.213z"/>
	<path style="fill-rule:evenodd;clip-rule:evenodd;fill:#F1A84A;" d="M29.801,43.284c-0.078-0.089-0.114-0.193-0.108-0.293
		c0.158,0.041,0.315,0.075,0.469,0.081c0.189,0.008,0.388-0.014,0.591-0.041c0,0.135-0.072,0.268-0.209,0.353
		C30.311,43.529,29.979,43.485,29.801,43.284z"/>
	<path style="fill-rule:evenodd;clip-rule:evenodd;fill:#3B9100;" d="M31.253,52.207c-2.091-0.972-3.001-3.459-2.027-5.552
		c0.699-1.506,2.185-2.398,3.743-2.418v8.358C32.393,52.591,31.809,52.467,31.253,52.207z"/>
	<path style="fill-rule:evenodd;clip-rule:evenodd;fill:#9CF088;" d="M31.555,51.559c-1.734-0.805-2.487-2.867-1.681-4.6
		c0.579-1.245,1.806-1.985,3.095-2.004v6.928C32.494,51.876,32.012,51.772,31.555,51.559z"/>
	<path style="fill-rule:evenodd;clip-rule:evenodd;fill:#89E372;" d="M31.338,50.067c0.155-0.358,0.497-0.65,0.764-0.65
		c0.267,0,0.358,0.29,0.203,0.648c-0.154,0.358-0.497,0.65-0.764,0.65S31.184,50.425,31.338,50.067z M32.756,50.27
		c-0.071-0.282,0-0.609,0.158-0.731c0.018-0.013,0.036-0.024,0.054-0.031v1.08C32.877,50.547,32.797,50.434,32.756,50.27z
		 M31.133,49.321c-0.162-0.116-0.093-0.331,0.157-0.481c0.249-0.152,0.582-0.18,0.744-0.066c0.162,0.116,0.092,0.331-0.157,0.482
		C31.628,49.407,31.296,49.436,31.133,49.321z M31.233,48.278c-0.388-0.041-0.768-0.281-0.848-0.537
		c-0.08-0.254,0.17-0.429,0.559-0.388c0.388,0.041,0.767,0.281,0.848,0.537C31.871,48.145,31.621,48.319,31.233,48.278z
		 M31.992,47.712c-0.226-0.182-0.367-0.485-0.316-0.677c0.053-0.193,0.28-0.2,0.506-0.019c0.227,0.184,0.369,0.485,0.316,0.678
		C32.445,47.885,32.218,47.894,31.992,47.712z M32.616,46.722c-0.095-0.379,0-0.818,0.211-0.981
		c0.046-0.035,0.094-0.055,0.141-0.059v1.488C32.819,47.146,32.681,46.983,32.616,46.722z"/>
	<path style="fill-rule:evenodd;clip-rule:evenodd;fill:#850317;" d="M44.16,51.919c0.123,0.597-0.43,1.162-0.572,1.751
		c-0.154,0.636,0.027,1.479-0.417,1.982c-0.629,0.713-1.94,0.25-2.385-0.865c-0.446-1.114-0.045-2.621,0.894-3.364
		C42.618,50.68,43.95,50.896,44.16,51.919z"/>
	<path style="fill-rule:evenodd;clip-rule:evenodd;fill:#91081D;" d="M43.814,51.778c0.103,0.261,0.005,0.532-0.213,0.605
		c-0.22,0.072-0.48-0.08-0.581-0.342c-0.103-0.261-0.007-0.532,0.213-0.604C43.452,51.365,43.714,51.517,43.814,51.778z"/>
	<path style="fill-rule:evenodd;clip-rule:evenodd;fill:#F1A84A;" d="M43.448,53.274c0.103-0.06,0.211-0.074,0.31-0.049
		c-0.071,0.146-0.134,0.295-0.17,0.444c-0.045,0.182-0.062,0.383-0.073,0.588c-0.132-0.027-0.249-0.122-0.306-0.274
		C43.11,53.728,43.218,53.41,43.448,53.274z"/>
	<path style="fill-rule:evenodd;clip-rule:evenodd;fill:#F0331B;" d="M39.779,47.021c1.955,0.312,3.287,2.152,2.976,4.106
		c-0.312,1.954-2.152,3.288-4.107,2.976c-1.954-0.312-3.287-2.152-2.976-4.106C35.984,48.043,37.824,46.709,39.779,47.021z"/>
	<path style="fill-rule:evenodd;clip-rule:evenodd;fill:#FB5039;" d="M38.221,48.144c0.595,0.095,1.001,0.655,0.906,1.251
		c-0.095,0.594-0.655,1.001-1.25,0.906s-1.001-0.655-0.906-1.251C37.065,48.454,37.626,48.049,38.221,48.144z"/>
	<path style="fill-rule:evenodd;clip-rule:evenodd;fill:#FBCD00;" d="M35.202,50.447l-0.934,1.397
		c-0.102,0.152-0.06,0.358,0.091,0.46l1.553,1.037c0.152,0.101,0.357,0.06,0.459-0.091l0.933-1.398
		c0.101-0.152,0.06-0.357-0.091-0.46l-1.553-1.037C35.509,50.254,35.303,50.294,35.202,50.447z"/>
	<path style="fill-rule:evenodd;clip-rule:evenodd;fill:#FBCD00;" d="M52.315,42.413l-0.934,1.397
		c-0.102,0.151-0.06,0.358,0.091,0.46l1.553,1.036c0.152,0.101,0.357,0.06,0.46-0.091l0.933-1.398
		c0.102-0.151,0.06-0.358-0.091-0.46l-1.553-1.037C52.622,42.219,52.417,42.26,52.315,42.413z"/>
	<path style="fill-rule:evenodd;clip-rule:evenodd;fill:#850317;" d="M53.637,44.611c-0.408-0.452-1.191-0.339-1.751-0.571
		c-0.605-0.252-1.178-0.895-1.847-0.833c-0.947,0.087-1.348,1.417-0.709,2.436c0.636,1.017,2.087,1.583,3.242,1.265
		C53.726,46.587,54.337,45.386,53.637,44.611z"/>
	<path style="fill-rule:evenodd;clip-rule:evenodd;fill:#91081D;" d="M53.546,44.973c-0.15-0.236-0.425-0.319-0.613-0.185
		c-0.188,0.135-0.22,0.435-0.068,0.671c0.15,0.236,0.425,0.318,0.613,0.184C53.666,45.51,53.698,45.21,53.546,44.973z"/>
	<path style="fill-rule:evenodd;clip-rule:evenodd;fill:#F1A84A;" d="M52.123,44.385c0.109-0.046,0.185-0.127,0.222-0.22
		c-0.161-0.031-0.317-0.067-0.459-0.126c-0.175-0.072-0.346-0.176-0.518-0.289c-0.056,0.123-0.049,0.274,0.04,0.408
		C51.557,44.39,51.877,44.492,52.123,44.385z"/>
	<path style="fill-rule:evenodd;clip-rule:evenodd;fill:#46BB00;" d="M41.382,42.958c0.389-0.11,0.665,0.558,1.07,0.568
		c0.348,0.008,0.574,0.073,0.947-0.447c0.392-0.551,0.721-1.947,1.626-1.658c0.367,0.118-0.036,0.883,0.035,1.168
		c0.072,0.297,0.432,0.367,0.847,0.112c0.871-0.533,1.27-2.004,2.019-1.59c0.18,0.099,0.022,0.428-0.066,0.609
		c-0.119,0.244,0.25,0.361,0.543,0.117c0.528-0.44,0.951-1.23,1.494-0.806c0.24,0.186-0.119,0.639-0.285,0.869
		c-0.216,0.304,0.14,0.433,0.301,0.395c0.556-0.135,1.155-0.93,1.795-0.797c0.348,0.073,0.216,0.386,0.441,0.488
		c0.361,0.162,1.499-0.43,1.67,0.36l0.001,0.005c0.161,0.791-1.118,0.711-1.382,1.005c-0.164,0.182,0.083,0.417-0.206,0.624
		c-0.532,0.38-1.399-0.105-1.963-0.004c-0.163,0.029-0.435,0.291-0.116,0.483c0.245,0.146,0.755,0.413,0.611,0.681
		c-0.328,0.606-1.032,0.055-1.694-0.133c-0.366-0.105-0.656,0.151-0.45,0.326c0.153,0.131,0.429,0.367,0.306,0.53
		c-0.519,0.683-1.477-0.5-2.49-0.637c-0.482-0.065-0.782,0.144-0.727,0.444c0.051,0.289,0.728,0.826,0.439,1.082
		c-0.712,0.632-1.576-0.514-2.159-0.859c-0.549-0.326-0.73-0.175-1.044-0.027c-0.365,0.172-0.349,0.896-0.749,0.951
		c-0.717,0.099-1.101-0.809-1.689-1.326l-0.135-0.637C40.703,44.141,40.686,43.155,41.382,42.958z"/>
	<path style="fill-rule:evenodd;clip-rule:evenodd;fill:#FB6113;" d="M42.179,52.445c-0.904-2.297-0.31-4.574,1.208-5.581
		l0.439-0.144l0.149,1.238c-1.002,0.854-1.351,2.495-0.655,4.148c0.715,2.156,2.755,3.499,4.49,3.048
		c0.009-0.004,0.017-0.006,0.024-0.009l0.875,0.669l-0.36,0.288c-0.159,0.08-0.321,0.132-0.518,0.169
		C45.689,56.823,43.131,55.163,42.179,52.445z"/>
	<path style="fill-rule:evenodd;clip-rule:evenodd;fill:#FB9528;" d="M42.518,52.278c-0.881-2.266-0.245-4.532,1.306-5.557
		l0.578,1.077c-1.028,0.862-1.405,2.496-0.726,4.127c0.691,2.129,2.736,3.431,4.499,2.958c0.009-0.004,0.017-0.006,0.026-0.01
		l0.506,0.942c-0.163,0.082-0.328,0.136-0.527,0.176C46.005,56.571,43.441,54.962,42.518,52.278z"/>
	<path style="fill-rule:evenodd;clip-rule:evenodd;fill:#FBCD00;" d="M41.679,38.509l-0.933,1.397
		c-0.102,0.152-0.06,0.358,0.091,0.46l1.553,1.038c0.152,0.101,0.357,0.06,0.46-0.091l0.933-1.398
		c0.101-0.152,0.06-0.357-0.091-0.46l-1.553-1.037C41.986,38.316,41.78,38.356,41.679,38.509z"/>
	<path style="fill-rule:evenodd;clip-rule:evenodd;fill:#FBCD00;" d="M41.064,49.108l-0.934,1.398
		c-0.101,0.152-0.06,0.358,0.091,0.46l1.553,1.037c0.151,0.101,0.357,0.06,0.46-0.091l0.934-1.398
		c0.101-0.151,0.06-0.357-0.091-0.46l-1.553-1.037C41.372,48.915,41.165,48.956,41.064,49.108z"/>
	<path style="fill-rule:evenodd;clip-rule:evenodd;fill:#3B9100;" d="M38.014,42.43c1.544-1.713,4.189-1.85,5.903-0.306
		c1.712,1.545,1.85,4.19,0.304,5.902c-1.544,1.713-4.189,1.85-5.901,0.306C36.606,46.787,36.47,44.144,38.014,42.43z"/>
	<path style="fill-rule:evenodd;clip-rule:evenodd;fill:#9CF088;" d="M38.546,42.91c1.281-1.42,3.472-1.533,4.892-0.253
		c1.42,1.28,1.534,3.472,0.253,4.891c-1.281,1.42-3.472,1.533-4.892,0.253C37.38,46.521,37.267,44.33,38.546,42.91z"/>
	<path style="fill-rule:evenodd;clip-rule:evenodd;fill:#89E372;" d="M41.484,47.548c-0.212-0.327-0.265-0.773-0.117-0.996
		c0.148-0.222,0.439-0.136,0.653,0.19c0.213,0.329,0.265,0.774,0.117,0.996C41.989,47.96,41.697,47.875,41.484,47.548z
		 M40.326,46.924c0.015-0.29,0.18-0.582,0.366-0.651s0.325,0.11,0.31,0.401c-0.015,0.29-0.178,0.582-0.365,0.651
		C40.451,47.394,40.311,47.214,40.326,46.924z M39.034,46.992c-0.256-0.078-0.257-0.384-0.004-0.681s0.667-0.474,0.921-0.396
		c0.256,0.078,0.257,0.383,0.004,0.679C39.702,46.893,39.288,47.07,39.034,46.992z M42.333,46.539
		c-0.275-0.099-0.506-0.34-0.519-0.538c-0.013-0.199,0.199-0.28,0.473-0.182c0.274,0.097,0.505,0.339,0.518,0.538
		C42.817,46.556,42.606,46.637,42.333,46.539z M39.053,45.538c-0.121-0.158,0.009-0.343,0.292-0.413
		c0.281-0.071,0.609-0.001,0.73,0.157s-0.009,0.344-0.292,0.415C39.503,45.767,39.175,45.696,39.053,45.538z M42.422,45.38
		c-0.162-0.212,0.014-0.461,0.393-0.555s0.818,0.004,0.98,0.216c0.162,0.212-0.014,0.461-0.393,0.553
		C43.023,45.69,42.583,45.592,42.422,45.38z M41.904,44.835c-0.191-0.053-0.199-0.28-0.017-0.506
		c0.182-0.226,0.486-0.367,0.677-0.315c0.191,0.053,0.199,0.28,0.018,0.506C42.4,44.746,42.095,44.887,41.904,44.835z
		 M39.457,44.571c-0.36-0.153-0.651-0.494-0.653-0.761c-0.001-0.267,0.289-0.36,0.649-0.207c0.358,0.154,0.65,0.494,0.651,0.761
		C40.105,44.632,39.815,44.724,39.457,44.571z M40.348,44.253c-0.163-0.24-0.209-0.573-0.102-0.74
		c0.107-0.168,0.325-0.109,0.488,0.131c0.163,0.241,0.209,0.573,0.103,0.74C40.73,44.552,40.511,44.493,40.348,44.253z
		 M41.236,43.492c0.021-0.39,0.24-0.782,0.491-0.874c0.25-0.094,0.437,0.148,0.417,0.537c-0.021,0.39-0.242,0.782-0.491,0.874
		C41.402,44.122,41.215,43.881,41.236,43.492z"/>
	<path style="fill-rule:evenodd;clip-rule:evenodd;fill:#FFFFFF;" d="M33.379,47.733l2.351,3.858
		c0.256,0.42,0.805,0.553,1.224,0.297l3.858-2.352c0.42-0.256,0.552-0.805,0.298-1.225l-2.352-3.858
		c-0.256-0.42-0.804-0.552-1.224-0.297l-3.858,2.351C33.257,46.763,33.123,47.313,33.379,47.733z"/>
	<path style="fill-rule:evenodd;clip-rule:evenodd;fill:#DFDFDF;" d="M39.427,50.381c-0.01-0.128,0.086-0.24,0.213-0.252
		c0.051-0.004,0.101,0.009,0.143,0.035L39.427,50.381z M40.371,49.692c-0.095,0.008-0.179-0.063-0.186-0.158
		c-0.008-0.095,0.063-0.178,0.158-0.186c0.096-0.008,0.179,0.063,0.186,0.158C40.537,49.599,40.466,49.684,40.371,49.692z
		 M37.284,51.312c-0.095,0.008-0.179-0.063-0.186-0.158c-0.008-0.095,0.063-0.179,0.158-0.186c0.095-0.008,0.179,0.063,0.188,0.159
		C37.45,51.22,37.379,51.303,37.284,51.312z M40.527,48.586c-0.172,0.015-0.324-0.113-0.338-0.286
		c-0.015-0.172,0.113-0.325,0.286-0.339c0.172-0.015,0.324,0.113,0.339,0.286C40.827,48.419,40.699,48.572,40.527,48.586z
		 M38.986,49.461c-0.095,0.008-0.178-0.063-0.188-0.158c-0.009-0.095,0.063-0.179,0.158-0.186c0.095-0.008,0.178,0.063,0.186,0.158
		C39.152,49.37,39.081,49.453,38.986,49.461z M36.982,50.076c-0.148-0.089-0.197-0.281-0.108-0.43
		c0.089-0.148,0.281-0.196,0.43-0.106c0.148,0.089,0.197,0.281,0.108,0.43C37.323,50.117,37.13,50.164,36.982,50.076z
		 M35.603,50.374c-0.095,0.009-0.178-0.063-0.186-0.158s0.063-0.178,0.158-0.186s0.178,0.063,0.186,0.158
		S35.698,50.366,35.603,50.374z M37.247,49.099c-0.111-0.066-0.145-0.208-0.08-0.319c0.066-0.109,0.208-0.145,0.317-0.08
		c0.109,0.066,0.145,0.208,0.08,0.317C37.497,49.128,37.355,49.163,37.247,49.099z M40.402,47.2
		c-0.095,0.008-0.179-0.063-0.186-0.158c-0.005-0.048,0.013-0.095,0.042-0.128l0.172,0.283C40.421,47.198,40.412,47.2,40.402,47.2z
		 M39.173,47.825c-0.129,0.011-0.242-0.085-0.252-0.213c-0.011-0.128,0.085-0.241,0.213-0.253c0.128-0.011,0.242,0.085,0.253,0.213
		C39.396,47.7,39.301,47.815,39.173,47.825z M39.745,46.474c-0.095,0.008-0.178-0.063-0.188-0.158
		c-0.008-0.095,0.063-0.178,0.158-0.186c0.024-0.001,0.048,0.001,0.069,0.008l0.116,0.19C39.889,46.405,39.826,46.468,39.745,46.474
		z M36.657,48.036c-0.173,0.014-0.325-0.114-0.339-0.288c-0.014-0.172,0.114-0.325,0.286-0.339s0.324,0.114,0.339,0.288
		C36.958,47.869,36.828,48.02,36.657,48.036z M35.237,48.617c-0.095,0.009-0.179-0.063-0.186-0.158
		c-0.009-0.095,0.063-0.179,0.158-0.186c0.095-0.008,0.179,0.063,0.186,0.158C35.404,48.526,35.332,48.61,35.237,48.617z
		 M38.506,46.08c-0.095,0.008-0.179-0.063-0.186-0.158c-0.009-0.095,0.062-0.179,0.157-0.186c0.095-0.009,0.178,0.063,0.186,0.158
		C38.67,45.989,38.6,46.072,38.506,46.08z M37.449,46.666c-0.095,0.008-0.179-0.063-0.186-0.158
		c-0.009-0.095,0.063-0.179,0.158-0.186c0.095-0.008,0.179,0.063,0.186,0.158S37.545,46.658,37.449,46.666z M33.78,48.19
		c-0.095,0.009-0.178-0.063-0.188-0.158c-0.009-0.095,0.063-0.177,0.158-0.186c0.095-0.009,0.179,0.063,0.186,0.158
		C33.947,48.098,33.875,48.182,33.78,48.19z M35.307,46.945c-0.172,0.014-0.325-0.114-0.338-0.286
		c-0.014-0.173,0.113-0.325,0.286-0.339c0.172-0.014,0.324,0.114,0.339,0.286C35.609,46.779,35.481,46.931,35.307,46.945z
		 M36.059,45.614c-0.094,0.009-0.179-0.063-0.186-0.158c-0.009-0.095,0.063-0.179,0.158-0.188c0.095-0.008,0.179,0.063,0.186,0.159
		C36.226,45.523,36.155,45.606,36.059,45.614z"/>
	<path style="fill-rule:evenodd;clip-rule:evenodd;fill:#850317;" d="M51.896,52.375c0.054-0.607-0.56-1.106-0.769-1.673
		c-0.226-0.615-0.143-1.473-0.642-1.922c-0.708-0.636-1.955-0.026-2.27,1.132s0.256,2.609,1.274,3.239
		C50.507,53.781,51.804,53.415,51.896,52.375z"/>
	<path style="fill-rule:evenodd;clip-rule:evenodd;fill:#91081D;" d="M51.569,52.555c0.071-0.271-0.055-0.529-0.281-0.575
		c-0.226-0.046-0.468,0.135-0.539,0.406c-0.072,0.271,0.054,0.528,0.283,0.575C51.257,53.006,51.498,52.823,51.569,52.555z"/>
	<path style="fill-rule:evenodd;clip-rule:evenodd;fill:#F1A84A;" d="M51.035,51.111c0.108,0.048,0.218,0.05,0.312,0.013
		c-0.087-0.139-0.167-0.279-0.22-0.422c-0.066-0.177-0.105-0.374-0.14-0.576c-0.128,0.041-0.232,0.15-0.272,0.307
		C50.647,50.698,50.789,51.003,51.035,51.111z"/>
	<path style="fill-rule:evenodd;clip-rule:evenodd;fill:#FBCD00;" d="M48.089,51.225l-0.933,1.397
		c-0.101,0.152-0.06,0.358,0.091,0.46L48.8,54.12c0.152,0.101,0.357,0.06,0.46-0.091l0.934-1.398c0.101-0.152,0.06-0.357-0.091-0.46
		l-1.553-1.037C48.396,51.033,48.19,51.072,48.089,51.225z"/>
	<path style="fill-rule:evenodd;clip-rule:evenodd;fill:#FFFFFF;" d="M43.231,47.767l-0.969,4.537
		c-0.105,0.493,0.211,0.981,0.704,1.086l4.537,0.969c0.493,0.105,0.98-0.211,1.085-0.704l0.969-4.537
		c0.105-0.493-0.211-0.981-0.704-1.086l-4.537-0.969C43.823,46.958,43.336,47.274,43.231,47.767z"/>
	<path style="fill-rule:evenodd;clip-rule:evenodd;fill:#DFDFDF;" d="M45.872,54.011c0.083-0.103,0.234-0.118,0.336-0.037
		c0.041,0.033,0.068,0.078,0.081,0.125L45.872,54.011z M47.063,54.163c-0.077-0.06-0.089-0.173-0.028-0.249
		c0.062-0.077,0.172-0.089,0.249-0.028c0.077,0.062,0.089,0.173,0.028,0.249C47.252,54.211,47.139,54.224,47.063,54.163z
		 M43.618,53.192c-0.077-0.062-0.089-0.172-0.028-0.249c0.06-0.077,0.172-0.09,0.249-0.028s0.089,0.173,0.028,0.249
		C43.806,53.241,43.695,53.254,43.618,53.192z M47.958,53.449c-0.14-0.11-0.161-0.313-0.051-0.453
		c0.111-0.139,0.315-0.161,0.453-0.051c0.139,0.112,0.162,0.314,0.05,0.453C48.3,53.536,48.097,53.559,47.958,53.449z
		 M46.193,53.014c-0.077-0.062-0.09-0.173-0.028-0.249c0.06-0.077,0.172-0.089,0.249-0.028c0.077,0.062,0.09,0.172,0.028,0.249
		C46.382,53.061,46.27,53.074,46.193,53.014z M44.265,52.058c-0.049-0.171,0.053-0.349,0.224-0.397
		c0.171-0.047,0.348,0.053,0.396,0.223c0.047,0.171-0.053,0.349-0.222,0.397C44.49,52.329,44.311,52.229,44.265,52.058z
		 M43.025,51.306c-0.076-0.062-0.089-0.173-0.027-0.249c0.06-0.076,0.172-0.089,0.249-0.028c0.077,0.062,0.089,0.173,0.027,0.249
		C43.213,51.356,43.101,51.368,43.025,51.306z M45.151,51.515c-0.036-0.126,0.039-0.257,0.166-0.294
		c0.126-0.036,0.257,0.039,0.293,0.164c0.036,0.126-0.039,0.257-0.164,0.294C45.317,51.715,45.186,51.641,45.151,51.515z
		 M48.845,52.327c-0.077-0.06-0.09-0.172-0.027-0.249c0.031-0.04,0.076-0.063,0.122-0.067l-0.071,0.331
		C48.86,52.34,48.852,52.333,48.845,52.327z M47.487,51.925c-0.104-0.082-0.121-0.235-0.039-0.338
		c0.082-0.103,0.234-0.121,0.337-0.037c0.104,0.083,0.121,0.234,0.039,0.336C47.741,51.99,47.589,52.007,47.487,51.925z
		 M48.866,51.321c-0.077-0.06-0.09-0.172-0.028-0.249c0.06-0.076,0.173-0.089,0.249-0.028c0.019,0.015,0.036,0.035,0.046,0.056
		l-0.049,0.223C49.023,51.373,48.932,51.374,48.866,51.321z M45.461,50.306c-0.14-0.111-0.162-0.313-0.05-0.452
		c0.111-0.139,0.313-0.162,0.452-0.051c0.14,0.111,0.162,0.313,0.051,0.453C45.804,50.394,45.6,50.416,45.461,50.306z
		 M43.991,49.738c-0.077-0.06-0.089-0.173-0.028-0.249c0.062-0.076,0.173-0.089,0.249-0.027s0.089,0.172,0.027,0.249
		C44.18,49.787,44.068,49.799,43.991,49.738z M48.219,50.152c-0.076-0.06-0.089-0.172-0.027-0.249
		c0.06-0.077,0.172-0.089,0.249-0.028c0.076,0.062,0.089,0.173,0.028,0.249C48.408,50.202,48.296,50.213,48.219,50.152z
		 M47.018,49.845c-0.076-0.062-0.089-0.173-0.027-0.249c0.06-0.076,0.172-0.089,0.249-0.028c0.077,0.06,0.09,0.173,0.028,0.249
		C47.207,49.894,47.095,49.905,47.018,49.845z M43.208,48.391c-0.077-0.06-0.09-0.173-0.028-0.25
		c0.06-0.076,0.172-0.089,0.249-0.027c0.076,0.06,0.089,0.172,0.027,0.249C43.395,48.44,43.284,48.452,43.208,48.391z
		 M45.224,48.542c-0.139-0.11-0.161-0.315-0.05-0.453c0.111-0.139,0.313-0.161,0.453-0.05c0.139,0.11,0.162,0.313,0.05,0.453
		C45.566,48.629,45.363,48.652,45.224,48.542z M46.724,48.078c-0.076-0.06-0.089-0.172-0.027-0.249
		c0.06-0.076,0.172-0.089,0.249-0.028c0.077,0.062,0.09,0.173,0.028,0.25S46.801,48.141,46.724,48.078z"/>
	<path style="fill-rule:evenodd;clip-rule:evenodd;fill:#83518D;" d="M41.131,47.709l0.238-0.438c0.34,1.194,2.964,3.49,4.497,3.83
		l-0.387,0.359C43.092,51.035,41.386,49.5,41.131,47.709z"/>
	<path style="fill-rule:evenodd;clip-rule:evenodd;fill:#C7AECC;" d="M41.361,47.278c1.364-0.17,1.364-0.17,1.364-0.17
		c0.34,1.365,1.62,2.387,3.325,2.642c-0.171,1.365-0.171,1.365-0.171,1.365C43.492,50.774,41.616,49.238,41.361,47.278z"/>
	<path style="fill-rule:evenodd;clip-rule:evenodd;fill:#FBCD00;" d="M30.317,39.403v1.681c0,0.182,0.148,0.331,0.331,0.331h1.868
		c0.182,0,0.332-0.149,0.332-0.331v-1.681c0-0.182-0.149-0.331-0.332-0.331h-1.868C30.465,39.072,30.317,39.221,30.317,39.403z"/>
	<path style="fill-rule:evenodd;clip-rule:evenodd;fill:#FB6113;" d="M31.184,39.252c-2.254-1.007-3.423-3.047-3.046-4.83
		l0.213-0.41l0.974,0.779c-0.118,1.312,0.782,2.727,2.437,3.42c2.019,1.037,4.416,0.569,5.339-0.968
		c0.004-0.009,0.008-0.017,0.012-0.024l1.092-0.133l-0.055,0.457c-0.058,0.17-0.136,0.32-0.251,0.484
		C36.758,39.92,33.769,40.527,31.184,39.252z"/>
	<path style="fill-rule:evenodd;clip-rule:evenodd;fill:#FB9528;" d="M31.31,38.895c-2.216-1.002-3.349-3.065-2.957-4.882
		l1.168,0.365c-0.13,1.335,0.745,2.767,2.371,3.454c1.985,1.035,4.356,0.534,5.284-1.039c0.004-0.009,0.008-0.017,0.012-0.024
		l1.021,0.319c-0.059,0.172-0.139,0.326-0.253,0.494C36.806,39.519,33.849,40.166,31.31,38.895z"/>
	<path style="fill-rule:evenodd;clip-rule:evenodd;fill:#850317;" d="M49.042,30.109c-0.609-0.027-1.079,0.609-1.638,0.844
		c-0.604,0.254-1.464,0.209-1.891,0.729c-0.604,0.734,0.063,1.954,1.234,2.216c1.172,0.263,2.595-0.374,3.178-1.419
		C50.509,31.433,50.085,30.153,49.042,30.109z"/>
	<path style="fill-rule:evenodd;clip-rule:evenodd;fill:#91081D;" d="M49.236,30.427c-0.274-0.059-0.525,0.078-0.561,0.307
		c-0.037,0.227,0.155,0.461,0.429,0.519c0.272,0.06,0.525-0.078,0.561-0.307C49.702,30.719,49.51,30.486,49.236,30.427z"/>
	<path style="fill-rule:evenodd;clip-rule:evenodd;fill:#F1A84A;" d="M47.818,31.027c0.042-0.11,0.04-0.221-0.001-0.313
		c-0.134,0.094-0.27,0.18-0.412,0.238c-0.173,0.073-0.369,0.122-0.569,0.166c0.048,0.126,0.16,0.226,0.319,0.259
		C47.424,31.434,47.722,31.276,47.818,31.027z"/>
	<path style="fill-rule:evenodd;clip-rule:evenodd;fill:#FBCD00;" d="M46.372,28.819l-0.632,1.557
		c-0.068,0.169,0.013,0.362,0.182,0.431l1.73,0.702c0.17,0.069,0.362-0.013,0.432-0.182l0.632-1.558
		c0.068-0.17-0.013-0.362-0.182-0.431l-1.73-0.702C46.634,28.568,46.441,28.649,46.372,28.819z"/>
	<path style="fill-rule:evenodd;clip-rule:evenodd;fill:#1F2921;" d="M43.215,24.441c1.517-1.043,3.298-0.469,4.048,1.244
		s0.081,3.98-1.373,5.079c-1.454,1.1-3.233,0.525-3.984-1.186C41.156,27.864,41.762,25.538,43.215,24.441z"/>
	<path style="fill-rule:evenodd;clip-rule:evenodd;fill:#323633;" d="M45.086,24.406c0.361-0.018,0.741,0.325,0.695,0.629
		c0.076,0.298-0.274,0.557-0.699,0.517c-0.425-0.038-0.741-0.325-0.816-0.623C44.312,24.625,44.66,24.367,45.086,24.406z"/>
	<path style="fill-rule:evenodd;clip-rule:evenodd;fill:#FBCD00;" d="M44.396,33.489l-0.934,1.397
		c-0.101,0.153-0.06,0.358,0.091,0.46l1.553,1.037c0.152,0.101,0.357,0.06,0.459-0.091l0.933-1.398
		c0.102-0.152,0.06-0.358-0.091-0.46l-1.553-1.038C44.704,33.296,44.497,33.337,44.396,33.489z"/>
	<path style="fill-rule:evenodd;clip-rule:evenodd;fill:#3B9100;" d="M37.184,32.583c1.544-1.713,4.189-1.85,5.901-0.306
		c1.712,1.545,1.85,4.189,0.305,5.902s-4.189,1.85-5.901,0.306C35.775,36.941,35.639,34.296,37.184,32.583z"/>
	<path style="fill-rule:evenodd;clip-rule:evenodd;fill:#9CF088;" d="M37.715,33.064c1.281-1.42,3.472-1.533,4.892-0.253
		c1.419,1.28,1.534,3.472,0.253,4.892c-1.281,1.42-3.472,1.533-4.892,0.253C36.548,36.674,36.435,34.482,37.715,33.064z"/>
	<path style="fill-rule:evenodd;clip-rule:evenodd;fill:#89E372;" d="M40.652,37.7c-0.212-0.327-0.265-0.774-0.117-0.996
		s0.441-0.137,0.653,0.19c0.213,0.327,0.265,0.774,0.118,0.996C41.157,38.113,40.864,38.028,40.652,37.7z M39.495,37.077
		c0.015-0.29,0.18-0.582,0.366-0.651s0.325,0.109,0.311,0.401c-0.015,0.29-0.18,0.583-0.366,0.651
		C39.618,37.547,39.48,37.367,39.495,37.077z M38.203,37.145c-0.256-0.078-0.257-0.383-0.004-0.68s0.667-0.474,0.921-0.395
		c0.256,0.078,0.258,0.383,0.004,0.681C38.871,37.046,38.457,37.223,38.203,37.145z M41.501,36.692
		c-0.274-0.098-0.506-0.339-0.519-0.538c-0.011-0.199,0.199-0.28,0.473-0.182s0.505,0.34,0.518,0.538S41.774,36.791,41.501,36.692z
		 M38.222,35.691c-0.121-0.158,0.01-0.343,0.292-0.413c0.281-0.071,0.609-0.001,0.73,0.157s-0.009,0.344-0.292,0.415
		C38.672,35.92,38.344,35.848,38.222,35.691z M41.59,35.534c-0.162-0.212,0.014-0.461,0.393-0.555s0.818,0.003,0.98,0.216
		c0.162,0.212-0.014,0.46-0.393,0.553C42.191,35.842,41.752,35.745,41.59,35.534z M41.072,34.987
		c-0.193-0.053-0.199-0.28-0.018-0.506c0.182-0.227,0.486-0.368,0.677-0.314c0.191,0.053,0.199,0.28,0.018,0.506
		C41.568,34.898,41.264,35.039,41.072,34.987z M38.625,34.723c-0.358-0.153-0.65-0.494-0.653-0.761
		c-0.001-0.267,0.289-0.359,0.647-0.207c0.358,0.153,0.65,0.496,0.651,0.763C39.274,34.785,38.984,34.876,38.625,34.723z
		 M39.517,34.406c-0.163-0.24-0.208-0.573-0.102-0.74c0.107-0.168,0.325-0.109,0.488,0.131c0.163,0.241,0.209,0.573,0.103,0.74
		C39.898,34.705,39.68,34.646,39.517,34.406z M40.404,33.644c0.021-0.389,0.24-0.782,0.491-0.874
		c0.25-0.094,0.437,0.148,0.416,0.537c-0.021,0.39-0.24,0.782-0.491,0.876C40.57,34.274,40.384,34.034,40.404,33.644z"/>
	<path style="fill-rule:evenodd;clip-rule:evenodd;fill:#83518D;" d="M49.507,35.989l0.393-0.307
		c-1.234-0.137-3.935-2.339-4.527-3.795l-0.29,0.442C45.903,34.61,47.7,36.035,49.507,35.989z"/>
	<path style="fill-rule:evenodd;clip-rule:evenodd;fill:#C7AECC;" d="M49.894,35.69c-0.059-1.374-0.059-1.374-0.059-1.374
		c-1.401-0.109-2.623-1.199-3.16-2.837c-1.315,0.396-1.315,0.396-1.315,0.396C46.093,34.171,47.918,35.765,49.894,35.69z"/>
	<path style="fill-rule:evenodd;clip-rule:evenodd;fill:#FB6113;" d="M48.025,32.009c-2.453,0.271-4.495-0.897-5.07-2.627
		l-0.024-0.461l1.233,0.18c0.561,1.192,2.055,1.958,3.832,1.718c2.269-0.125,4.099-1.744,4.117-3.535
		c-0.001-0.009-0.003-0.018-0.003-0.026l0.875-0.669l0.184,0.423c0.035,0.175,0.042,0.345,0.027,0.544
		C53.171,29.768,50.9,31.803,48.025,32.009z"/>
	<path style="fill-rule:evenodd;clip-rule:evenodd;fill:#FB9528;" d="M47.953,31.638c-2.418,0.258-4.438-0.949-5.02-2.715
		l1.192-0.276c0.563,1.217,2.041,2.011,3.792,1.78c2.235-0.109,4.028-1.742,4.032-3.567c-0.001-0.01-0.002-0.018-0.002-0.028
		l1.042-0.241c0.036,0.178,0.045,0.352,0.032,0.555C53.01,29.397,50.787,31.45,47.953,31.638z"/>
	<path style="fill-rule:evenodd;clip-rule:evenodd;fill:#FFFFFF;" d="M35.897,30.348l2.352,3.858
		c0.256,0.42,0.806,0.553,1.224,0.298l3.858-2.352c0.42-0.256,0.552-0.805,0.297-1.225l-2.352-3.858
		c-0.256-0.42-0.805-0.552-1.224-0.298l-3.858,2.352C35.775,29.38,35.641,29.929,35.897,30.348z"/>
	<path style="fill-rule:evenodd;clip-rule:evenodd;fill:#DFDFDF;" d="M41.945,32.998c-0.01-0.128,0.086-0.24,0.213-0.252
		c0.051-0.004,0.1,0.009,0.141,0.035L41.945,32.998z M42.889,32.307c-0.094,0.008-0.179-0.063-0.186-0.158
		c-0.009-0.095,0.063-0.178,0.157-0.186c0.096-0.008,0.179,0.063,0.188,0.158C43.056,32.216,42.984,32.3,42.889,32.307z
		 M39.802,33.928c-0.095,0.008-0.179-0.063-0.186-0.158c-0.008-0.095,0.063-0.178,0.158-0.188c0.095-0.008,0.179,0.063,0.188,0.158
		C39.969,33.835,39.898,33.92,39.802,33.928z M43.044,31.203c-0.172,0.015-0.324-0.114-0.339-0.286
		c-0.014-0.172,0.114-0.325,0.286-0.339c0.173-0.015,0.325,0.113,0.339,0.286C43.345,31.036,43.217,31.188,43.044,31.203z
		 M41.504,32.076c-0.095,0.009-0.179-0.063-0.186-0.158c-0.009-0.095,0.063-0.178,0.158-0.187c0.095-0.008,0.179,0.063,0.186,0.158
		C41.67,31.985,41.599,32.069,41.504,32.076z M39.5,32.692c-0.148-0.089-0.195-0.281-0.108-0.43c0.089-0.148,0.281-0.195,0.43-0.108
		c0.148,0.089,0.195,0.282,0.108,0.43C39.841,32.732,39.648,32.781,39.5,32.692z M38.121,32.99
		c-0.095,0.008-0.179-0.063-0.188-0.158c-0.008-0.095,0.063-0.178,0.158-0.186s0.179,0.063,0.186,0.158
		C38.286,32.898,38.216,32.981,38.121,32.99z M39.764,31.714c-0.109-0.066-0.145-0.208-0.08-0.317
		c0.066-0.109,0.208-0.145,0.317-0.08s0.145,0.208,0.08,0.317C40.015,31.744,39.874,31.78,39.764,31.714z M42.92,29.816
		c-0.095,0.008-0.179-0.063-0.186-0.158c-0.005-0.049,0.013-0.095,0.042-0.128l0.172,0.281C42.939,29.814,42.93,29.816,42.92,29.816
		z M41.69,30.44c-0.128,0.012-0.241-0.085-0.252-0.213c-0.01-0.128,0.085-0.241,0.213-0.253c0.128-0.01,0.242,0.085,0.252,0.214
		C41.914,30.317,41.819,30.43,41.69,30.44z M42.264,29.09c-0.095,0.009-0.179-0.063-0.188-0.158
		c-0.008-0.095,0.063-0.179,0.158-0.186c0.024-0.003,0.048,0,0.069,0.008l0.116,0.189C42.407,29.02,42.344,29.084,42.264,29.09z
		 M39.174,30.651c-0.172,0.014-0.324-0.114-0.339-0.286c-0.014-0.172,0.114-0.325,0.286-0.339c0.172-0.015,0.325,0.114,0.339,0.286
		C39.476,30.484,39.346,30.637,39.174,30.651z M37.755,31.233c-0.095,0.009-0.179-0.063-0.186-0.158
		c-0.008-0.095,0.063-0.178,0.158-0.188c0.095-0.006,0.179,0.064,0.188,0.158C37.92,31.141,37.85,31.225,37.755,31.233z
		 M41.022,28.697c-0.095,0.008-0.178-0.063-0.186-0.158c-0.008-0.096,0.063-0.18,0.158-0.188s0.178,0.063,0.186,0.158
		C41.188,28.604,41.118,28.688,41.022,28.697z M39.968,29.282c-0.095,0.008-0.18-0.063-0.186-0.158
		c-0.009-0.095,0.062-0.178,0.158-0.186c0.095-0.009,0.179,0.063,0.186,0.157C40.132,29.191,40.062,29.275,39.968,29.282z
		 M36.299,30.805c-0.095,0.008-0.179-0.063-0.186-0.158c-0.009-0.095,0.063-0.179,0.158-0.186c0.095-0.008,0.179,0.063,0.186,0.158
		C36.465,30.714,36.393,30.797,36.299,30.805z M37.826,29.561c-0.172,0.014-0.324-0.114-0.339-0.286
		c-0.014-0.173,0.114-0.325,0.286-0.34c0.172-0.014,0.325,0.114,0.339,0.288C38.127,29.395,37.999,29.547,37.826,29.561z
		 M38.577,28.231c-0.094,0.008-0.179-0.063-0.186-0.158c-0.009-0.095,0.063-0.178,0.158-0.188c0.095-0.008,0.179,0.063,0.186,0.159
		C38.745,28.14,38.673,28.223,38.577,28.231z"/>
	<path style="fill-rule:evenodd;clip-rule:evenodd;fill:#F0331B;" d="M33.306,28.982c1.954,0.316,3.282,2.16,2.966,4.114
		s-2.159,3.283-4.113,2.966c-1.954-0.316-3.282-2.16-2.966-4.114S31.352,28.665,33.306,28.982z"/>
	<path style="fill-rule:evenodd;clip-rule:evenodd;fill:#FB5039;" d="M31.745,30.1c0.595,0.096,0.999,0.657,0.903,1.252
		c-0.096,0.594-0.658,0.999-1.253,0.903s-0.999-0.657-0.903-1.252C30.589,30.408,31.15,30.004,31.745,30.1z"/>
	<path style="fill-rule:evenodd;clip-rule:evenodd;fill:#F0331B;" d="M49.05,44.025c1.955,0.312,3.289,2.152,2.976,4.106
		c-0.312,1.954-2.152,3.288-4.107,2.976c-1.954-0.312-3.287-2.152-2.976-4.106C45.257,45.046,47.096,43.713,49.05,44.025z"/>
	<path style="fill-rule:evenodd;clip-rule:evenodd;fill:#FB5039;" d="M47.493,45.147c0.595,0.095,1.001,0.655,0.906,1.251
		c-0.095,0.594-0.655,1.001-1.25,0.906s-1.001-0.655-0.906-1.249C46.337,45.458,46.897,45.052,47.493,45.147z"/>
	<path style="fill-rule:evenodd;clip-rule:evenodd;fill:#46BB00;" d="M37.512,39.368c-0.198-0.352,0.387-0.778,0.301-1.172
		c-0.075-0.34-0.063-0.575-0.656-0.815c-0.627-0.252-2.062-0.244-1.992-1.193c0.028-0.385,0.866-0.173,1.128-0.307
		c0.272-0.14,0.256-0.505-0.09-0.849c-0.722-0.722-2.247-0.765-2.018-1.591c0.054-0.198,0.411-0.121,0.608-0.078
		c0.265,0.058,0.29-0.329-0.014-0.556c-0.552-0.41-1.419-0.637-1.136-1.263c0.125-0.277,0.649-0.035,0.912,0.073
		c0.346,0.139,0.388-0.238,0.313-0.385c-0.261-0.51-1.174-0.904-1.196-1.556c-0.011-0.356,0.324-0.302,0.37-0.543
		c0.073-0.389-0.768-1.356-0.041-1.708l0.005-0.003c0.731-0.343,0.952,0.919,1.3,1.108c0.216,0.117,0.387-0.18,0.655,0.054
		c0.495,0.429,0.225,1.387,0.457,1.909c0.067,0.151,0.387,0.354,0.496-0.001c0.083-0.272,0.223-0.832,0.518-0.755
		c0.665,0.176,0.295,0.99,0.267,1.678c-0.015,0.381,0.302,0.603,0.421,0.361c0.091-0.18,0.257-0.503,0.444-0.421
		c0.786,0.343-0.141,1.554-0.036,2.569c0.05,0.484,0.322,0.728,0.603,0.603c0.268-0.118,0.631-0.903,0.949-0.682
		c0.781,0.544-0.13,1.652-0.329,2.3c-0.188,0.611,0.001,0.75,0.218,1.022c0.253,0.315,0.953,0.13,1.101,0.505
		c0.265,0.674-0.528,1.259-0.894,1.953l-0.588,0.28C38.822,39.752,37.868,39.998,37.512,39.368z"/>
	<path style="fill-rule:evenodd;clip-rule:evenodd;fill:#F0331B;" d="M45.738,28.598c1.552,1.227,1.815,3.485,0.588,5.037
		c-1.228,1.552-3.485,1.816-5.037,0.588c-1.553-1.227-1.816-3.485-0.588-5.037C41.928,27.634,44.185,27.371,45.738,28.598z"/>
	<path style="fill-rule:evenodd;clip-rule:evenodd;fill:#FB5039;" d="M42.935,29.39c0.473,0.374,0.552,1.062,0.179,1.534
		s-1.061,0.553-1.534,0.18c-0.473-0.374-0.552-1.062-0.179-1.534C41.775,29.096,42.463,29.017,42.935,29.39z"/>
	<path style="fill-rule:evenodd;clip-rule:evenodd;fill:#FBCD00;" d="M32.49,46.508l-0.934,1.398
		c-0.101,0.152-0.06,0.358,0.091,0.46l1.553,1.037c0.152,0.101,0.357,0.06,0.459-0.091l0.933-1.398
		c0.101-0.152,0.06-0.358-0.091-0.46l-1.553-1.037C32.797,46.315,32.592,46.356,32.49,46.508z"/>
	<path style="fill-rule:evenodd;clip-rule:evenodd;fill:#F0331B;" d="M31.144,41.074c1.517-1.271,3.781-1.07,5.051,0.448
		c1.271,1.518,1.07,3.781-0.448,5.051c-1.517,1.271-3.781,1.07-5.051-0.447C29.427,44.608,29.627,42.344,31.144,41.074z"/>
	<path style="fill-rule:evenodd;clip-rule:evenodd;fill:#FB5039;" d="M31.289,41.963c0.462-0.387,1.151-0.326,1.538,0.136
		s0.326,1.152-0.136,1.538c-0.462,0.386-1.151,0.326-1.538-0.136C30.765,43.038,30.827,42.349,31.289,41.963z"/>
	<path style="fill-rule:evenodd;clip-rule:evenodd;fill:#FFFFFF;" d="M33.197,34.476l-1.45,4.523
		c-0.158,0.492,0.114,1.021,0.606,1.179l4.523,1.451c0.492,0.158,1.021-0.114,1.178-0.606l1.45-4.523
		c0.158-0.492-0.114-1.021-0.605-1.179l-4.523-1.451C33.883,33.712,33.355,33.983,33.197,34.476z"/>
	<path style="fill-rule:evenodd;clip-rule:evenodd;fill:#DFDFDF;" d="M35.25,41.106c0.095-0.096,0.25-0.096,0.345-0.003
		c0.039,0.039,0.063,0.086,0.071,0.136L35.25,41.106z M36.447,41.382c-0.072-0.069-0.073-0.185-0.003-0.257
		c0.069-0.072,0.185-0.073,0.257-0.004c0.071,0.071,0.072,0.186,0.002,0.257C36.634,41.452,36.519,41.454,36.447,41.382z
		 M33.036,40.043c-0.072-0.071-0.073-0.185-0.003-0.257c0.069-0.072,0.185-0.073,0.257-0.004s0.072,0.186,0.002,0.258
		C33.224,40.111,33.108,40.112,33.036,40.043z M37.434,40.747c-0.131-0.127-0.132-0.336-0.007-0.467
		c0.127-0.13,0.337-0.132,0.466-0.005c0.131,0.127,0.134,0.336,0.007,0.466C37.773,40.873,37.562,40.874,37.434,40.747z
		 M35.679,40.123c-0.072-0.069-0.073-0.185-0.003-0.257c0.069-0.072,0.184-0.073,0.257-0.002c0.072,0.069,0.072,0.185,0.003,0.257
		C35.866,40.192,35.751,40.193,35.679,40.123z M33.811,38.953c-0.031-0.178,0.089-0.349,0.269-0.381
		c0.179-0.031,0.349,0.09,0.38,0.268c0.032,0.178-0.089,0.349-0.267,0.38C34.014,39.252,33.843,39.132,33.811,38.953z
		 M32.625,38.061c-0.072-0.069-0.073-0.185-0.003-0.258c0.071-0.071,0.185-0.072,0.257-0.002c0.072,0.069,0.072,0.185,0.003,0.257
		C32.813,38.129,32.697,38.13,32.625,38.061z M34.771,38.491c-0.023-0.132,0.065-0.259,0.197-0.282
		c0.132-0.023,0.259,0.065,0.283,0.198c0.023,0.132-0.067,0.259-0.198,0.281C34.92,38.712,34.794,38.622,34.771,38.491z
		 M38.45,39.694c-0.072-0.069-0.073-0.185-0.003-0.257c0.036-0.037,0.084-0.055,0.131-0.055l-0.107,0.331
		C38.465,39.708,38.457,39.702,38.45,39.694z M37.107,39.146c-0.096-0.095-0.098-0.25-0.004-0.347
		c0.095-0.098,0.25-0.099,0.348-0.004c0.096,0.095,0.099,0.25,0.004,0.347S37.205,39.241,37.107,39.146z M38.576,38.672
		c-0.072-0.069-0.073-0.185-0.003-0.257c0.069-0.072,0.185-0.073,0.257-0.003c0.018,0.018,0.031,0.039,0.041,0.062L38.8,38.696
		C38.73,38.74,38.637,38.732,38.576,38.672z M35.21,37.29c-0.131-0.127-0.132-0.336-0.005-0.466
		c0.127-0.131,0.337-0.132,0.466-0.007c0.13,0.127,0.132,0.336,0.005,0.467S35.34,37.417,35.21,37.29z M33.771,36.56
		c-0.072-0.069-0.073-0.185-0.004-0.257c0.071-0.072,0.185-0.073,0.257-0.003c0.072,0.069,0.073,0.185,0.004,0.257
		C33.957,36.63,33.843,36.63,33.771,36.56z M38.036,37.415c-0.072-0.069-0.073-0.185-0.002-0.257
		c0.069-0.072,0.185-0.073,0.256-0.001c0.072,0.068,0.073,0.184,0.004,0.256C38.222,37.484,38.107,37.486,38.036,37.415z
		 M36.844,36.978c-0.072-0.071-0.073-0.185-0.002-0.257c0.069-0.071,0.185-0.072,0.257-0.002c0.072,0.069,0.073,0.185,0.003,0.257
		C37.03,37.048,36.914,37.049,36.844,36.978z M33.11,35.109c-0.072-0.071-0.073-0.185-0.004-0.257
		c0.071-0.072,0.185-0.072,0.258-0.003c0.072,0.071,0.073,0.186,0.003,0.257C33.296,35.178,33.18,35.18,33.11,35.109z
		 M35.149,35.467c-0.13-0.127-0.132-0.336-0.005-0.466s0.337-0.132,0.466-0.005c0.13,0.127,0.132,0.336,0.005,0.466
		C35.489,35.593,35.279,35.594,35.149,35.467z M36.724,35.15c-0.072-0.069-0.073-0.185-0.004-0.257
		c0.071-0.072,0.185-0.073,0.257-0.004c0.072,0.071,0.073,0.185,0.004,0.257C36.912,35.219,36.796,35.221,36.724,35.15z"/>
	<path style="fill-rule:evenodd;clip-rule:evenodd;fill:#1F2921;" d="M38.465,45.474c-1.838,0.09-3.05-1.334-2.789-3.186
		c0.262-1.851,2.023-3.428,3.838-3.599c1.814-0.172,3.027,1.252,2.764,3.103C42.017,43.645,40.279,45.304,38.465,45.474z"/>
	<path style="fill-rule:evenodd;clip-rule:evenodd;fill:#323633;" d="M36.857,44.521c-0.317-0.175-0.46-0.665-0.262-0.9
		c0.092-0.293,0.525-0.33,0.866-0.074c0.34,0.257,0.46,0.666,0.367,0.959C37.63,44.74,37.197,44.777,36.857,44.521z"/>
	<path style="fill-rule:evenodd;clip-rule:evenodd;fill:#78BA03;" d="M52.846,60.143c-2.222,1.371-5.14,0.679-6.51-1.542
		c-1.083-1.756-0.877-3.947,0.352-5.466l7.629,5.579C53.949,59.276,53.455,59.767,52.846,60.143z"/>
	<path style="fill-rule:evenodd;clip-rule:evenodd;fill:#CFE99B;" d="M52.467,59.531c-1.885,1.163-4.357,0.576-5.52-1.307
		c-0.924-1.502-0.741-3.375,0.322-4.662l6.464,4.726C53.421,58.777,52.993,59.203,52.467,59.531z"/>
	<path style="fill-rule:evenodd;clip-rule:evenodd;fill:#B7DF69;" d="M47.032,57.209c-0.021-0.097,0.01-0.245,0.166-0.266
		l2.624-0.551c0.2-0.05,0.2,0.012,0.091,0.13l-1.802,2.07c-0.055,0.059-0.164,0.073-0.257-0.019
		C47.47,58.234,47.191,57.79,47.032,57.209z M48.687,59.013l1.425-2.346c0.08-0.139,0.139-0.158,0.153,0.048l0.271,2.668
		c0.027,0.155-0.104,0.229-0.203,0.239c-0.6,0.023-1.109-0.107-1.548-0.371C48.668,59.192,48.649,59.085,48.687,59.013z
		 M46.879,56.158c-0.06-0.508,0.03-1.028,0.297-1.564c0.05-0.087,0.172-0.176,0.303-0.089l2.321,1.34
		c0.184,0.098,0.143,0.142-0.019,0.159l-2.722,0.338C46.976,56.349,46.885,56.287,46.879,56.158z M51.149,59.335l-0.504-2.696
		c-0.032-0.159-0.003-0.211,0.146-0.067l1.982,1.805c0.123,0.099,0.076,0.241,0.008,0.316c-0.429,0.417-0.897,0.661-1.4,0.757
		C51.255,59.483,51.169,59.414,51.149,59.335z"/>
	<path style="fill-rule:evenodd;clip-rule:evenodd;fill:#81CB00;" d="M48.849,62.623c-2.524,0.669-5.115-0.838-5.785-3.361
		c-0.528-1.995,0.302-4.032,1.92-5.129l5.686,7.55C50.157,62.112,49.542,62.438,48.849,62.623z"/>
	<path style="fill-rule:evenodd;clip-rule:evenodd;fill:#D8F0AB;" d="M48.666,61.927c-2.141,0.568-4.338-0.71-4.904-2.849
		c-0.45-1.705,0.267-3.445,1.658-4.369l4.819,6.397C49.796,61.483,49.264,61.766,48.666,61.927z"/>
	<path style="fill-rule:evenodd;clip-rule:evenodd;fill:#C4E87E;" d="M44.135,58.13c0.008-0.099,0.081-0.231,0.235-0.207
		l2.673,0.232c0.205,0.011,0.188,0.069,0.049,0.152l-2.325,1.458c-0.071,0.041-0.179,0.022-0.24-0.092
		C44.257,59.238,44.119,58.731,44.135,58.13z M45.197,60.337l2.044-1.833c0.117-0.11,0.179-0.112,0.131,0.09l-0.514,2.632
		c-0.019,0.157-0.166,0.189-0.263,0.171c-0.581-0.152-1.03-0.423-1.375-0.804C45.127,60.501,45.139,60.394,45.197,60.337z
		 M44.293,57.08c0.09-0.505,0.326-0.976,0.737-1.411c0.073-0.069,0.216-0.118,0.316,0.002l1.833,1.957
		c0.147,0.146,0.095,0.177-0.064,0.146l-2.704-0.465C44.331,57.292,44.262,57.206,44.293,57.08z M47.459,61.358l0.299-2.727
		c0.015-0.162,0.059-0.203,0.159-0.021l1.375,2.301c0.09,0.131,0.003,0.253-0.085,0.304c-0.532,0.275-1.049,0.372-1.558,0.32
		C47.519,61.531,47.457,61.439,47.459,61.358z"/>
	<path style="fill-rule:evenodd;clip-rule:evenodd;fill:#8DDD00;" d="M44.165,64.213c-2.605-0.186-4.565-2.454-4.379-5.058
		c0.149-2.06,1.595-3.716,3.482-4.228l2.926,8.986C45.567,64.157,44.88,64.265,44.165,64.213z"/>
	<path style="fill-rule:evenodd;clip-rule:evenodd;fill:#E5FBBA;" d="M44.216,63.496c-2.208-0.158-3.873-2.08-3.714-4.288
		c0.13-1.758,1.371-3.171,2.988-3.592l2.48,7.614C45.43,63.443,44.834,63.538,44.216,63.496z"/>
	<path style="fill-rule:evenodd;clip-rule:evenodd;fill:#CAEC89;" d="M41.164,58.434c0.04-0.091,0.152-0.193,0.29-0.118l2.452,1.088
		c0.191,0.077,0.155,0.127-0.001,0.159l-2.673,0.624c-0.08,0.015-0.176-0.037-0.197-0.166C40.92,59.52,40.954,58.998,41.164,58.434z
		 M41.453,60.866l2.528-1.069c0.145-0.065,0.204-0.048,0.095,0.127l-1.341,2.324c-0.068,0.141-0.218,0.126-0.304,0.076
		c-0.501-0.331-0.838-0.734-1.038-1.207C41.333,61.001,41.38,60.901,41.453,60.866z M41.656,57.492
		c0.249-0.448,0.626-0.817,1.155-1.095c0.092-0.041,0.243-0.042,0.298,0.105l1.098,2.446c0.091,0.186,0.032,0.198-0.109,0.118
		l-2.406-1.317C41.622,57.705,41.585,57.599,41.656,57.492z M43.262,62.567l1.169-2.483c0.067-0.148,0.121-0.172,0.158,0.032
		l0.552,2.622c0.042,0.153-0.08,0.24-0.179,0.261c-0.592,0.089-1.114,0.013-1.579-0.203C43.262,62.749,43.232,62.641,43.262,62.567z
		"/>
</g>
</svg>
