<?xml version="1.0" encoding="iso-8859-1"?>
<!-- Generator: Adobe Illustrator 30.2.1, SVG Export Plug-In . SVG Version: 9.03 Build 0)  -->
<svg version="1.1" id="&#x5716;&#x5C64;_1" xmlns="http://www.w3.org/2000/svg" xmlns:xlink="http://www.w3.org/1999/xlink" x="0px"
	 y="0px" viewBox="0 0 191 13" style="enable-background:new 0 0 191 13;" xml:space="preserve">
<path style="fill-rule:evenodd;clip-rule:evenodd;fill:none;stroke:#26C6D0;stroke-width:5;stroke-linecap:round;stroke-linejoin:round;stroke-miterlimit:10;" d="
	M185.152,6.498c-1.6,1.807-3.205,3.623-6.406,3.623c-3.203,0-4.805-1.814-6.408-3.623c-1.599-1.807-3.201-3.623-6.403-3.623
	s-4.806,1.816-6.406,3.623c-1.598,1.807-3.202,3.623-6.405,3.623c-3.202,0-4.804-1.816-6.403-3.623
	c-1.599-1.807-3.2-3.623-6.406-3.623c-3.2,0-4.807,1.816-6.403,3.623c-1.597,1.807-3.203,3.623-6.403,3.623
	c-3.201,0-4.804-1.816-6.404-3.623c-1.598-1.807-3.2-3.623-6.403-3.623c-3.202,0-4.806,1.816-6.404,3.623
	c-1.596,1.807-3.2,3.623-6.402,3.623c-3.203,0-4.804-1.816-6.403-3.623l0.076,0.087c-0.046-0.063-0.092-0.129-0.139-0.193
	c-1.562-1.762-3.163-3.517-6.313-3.517c-3.203,0-4.806,1.816-6.406,3.623c-1.599,1.807-3.205,3.623-6.405,3.623
	c-3.203,0-4.804-1.816-6.403-3.623c-1.599-1.807-3.201-3.623-6.403-3.623c-3.203,0-4.806,1.816-6.403,3.623
	c-1.597,1.807-3.2,3.623-6.403,3.623c-3.203,0-4.804-1.816-6.403-3.623c-1.599-1.807-3.2-3.623-6.403-3.623
	c-3.203,0-4.806,1.816-6.403,3.623c-1.597,1.807-3.2,3.623-6.403,3.623s-4.804-1.816-6.403-3.623
	c-1.599-1.807-3.2-3.623-6.403-3.623c-3.203,0-4.806,1.816-6.403,3.623L5.853,6.517"/>
</svg>
